<svg width="342" height="81" viewBox="0 0 342 81" fill="none" xmlns="http://www.w3.org/2000/svg">
<g clip-path="url(#clip0_1_1126)">
<g clip-path="url(#clip1_1_1126)">
<mask id="mask0_1_1126" style="mask-type:luminance" maskUnits="userSpaceOnUse" x="0" y="0" width="342" height="81">
<path d="M341.999 0.441406H0.00125122V80.2177H341.999V0.441406Z" fill="white"/>
</mask>
<g mask="url(#mask0_1_1126)">
<path d="M0.546814 3.09766H8.34877V23.5365H12.175V3.09766H24.3525V56.8777H12.175V34.5003H8.34877V56.8777H0.546814V3.09766Z" fill="white"/>
<path d="M71.0861 29.954C71.0861 47.2751 65.1073 58.1468 47.7061 58.1468C31.8892 58.1468 25.9816 47.463 25.9816 29.8324C25.9816 13.2853 31.8892 2.37305 48.4459 2.37305C65.0027 2.37305 71.0861 13.4806 71.0861 29.9577V29.954ZM42.4861 29.7293C42.4861 42.1304 43.2148 45.7199 46.7944 45.7199C50.374 45.7199 51.5324 42.2704 51.5324 29.5965C51.5324 17.8551 50.4151 14.8368 46.7533 14.8368C43.3978 14.8368 42.4823 17.774 42.4823 29.7256L42.4861 29.7293Z" fill="white"/>
<path d="M84.3172 17.0542H70.6074V3.10156H122.094V17.0542H106.583V56.8816H84.3172V17.0542Z" fill="white"/>
<path d="M145.078 40.3825C145.612 42.649 146.98 45.2288 151.086 45.2288C154.206 45.2288 155.88 43.9794 155.88 42.0999C155.88 40.2204 155.346 38.7352 146.598 37.0952C125.602 33.1851 123.548 25.2912 123.548 18.2559C123.548 8.09542 132.37 0.433594 150.253 0.433594C166.607 0.433594 177.918 6.45542 178.755 17.4709H156.261C155.805 15.1233 154.587 13.3285 151.011 13.3285C148.425 13.3285 147.132 14.3457 147.132 15.912C147.132 17.7878 149.416 18.7239 155.353 19.8221C174.981 23.3416 180.228 30.2184 180.228 38.8974C180.228 50.86 169.425 58.2822 151.546 58.2822C132.071 58.2822 122.737 50.4656 121.141 40.3825H145.081H145.078Z" fill="white"/>
<path d="M201.298 48.2026L199.777 56.8816H178.038L193.179 3.10156H223.333L236.863 56.8816H215.392L213.756 48.2026H201.287H201.291H201.298ZM210.845 33.7414C210.109 29.5549 208.293 21.4692 207.385 15.5285H207.65C206.735 21.7051 205.334 28.3718 204.325 33.7414H210.853H210.849H210.845Z" fill="white"/>
<path d="M255.419 3.09766V41.2077C255.419 44.1485 258.217 45.7074 260.755 45.7074C263.124 45.7074 265.937 44.2296 265.937 41.2077V3.09766H284.153V39.037C284.153 53.1223 272.715 58.4071 259.869 58.4071C247.023 58.4071 235.316 52.6837 235.316 38.9227V3.09766H255.419Z" fill="white"/>
<path d="M321.661 38.3748V38.9681C321.661 49.3644 318.399 58.4119 305.623 58.4119C294.114 58.4119 286.649 51.9552 286.649 32.0876V28.6197C286.649 8.13666 295.874 1.75 305.975 1.75C318.492 1.75 321.661 11.6857 321.661 20.8326V21.5255H307.084V20.6447C307.084 15.9864 306.419 14.2027 305.283 14.2027C304.357 14.2027 302.888 16.0859 302.888 28.148V32.0434C302.888 44.7393 304.155 46.4493 305.261 46.4493C306.479 46.4493 307.148 44.4703 307.148 39.3109V38.3748H321.664H321.661Z" fill="white"/>
<path d="M340.097 32.8788H333.464V46.6361H341.999L340.631 56.8777H323.813V3.09766H340.557V13.3392H333.464V22.6446H340.097V32.8862V32.8788Z" fill="white"/>
<path d="M126.761 76.657V65.5273H128.513V69.9128C129.066 69.0984 129.896 68.7004 130.998 68.693C131.939 68.693 132.669 68.9694 133.18 69.5188C133.696 70.0675 133.954 70.8341 133.954 71.8143V76.6536H132.201V72.0543C132.201 70.7827 131.626 70.1487 130.483 70.1487C129.907 70.1487 129.437 70.3221 129.07 70.6572C128.704 70.9999 128.517 71.4827 128.517 72.1022V76.6494H126.764L126.757 76.6605L126.761 76.657Z" fill="white"/>
<path d="M142.238 75.7038C141.461 76.4704 140.478 76.8533 139.301 76.8533C138.124 76.8533 137.141 76.4704 136.353 75.7038C135.568 74.9373 135.176 73.9571 135.176 72.7736C135.176 71.5909 135.572 70.6141 136.353 69.8552C137.137 69.0923 138.116 68.709 139.301 68.709C140.485 68.709 141.461 69.0923 142.238 69.8552C143.015 70.6183 143.404 71.5909 143.404 72.7736C143.404 73.9571 143.015 74.9373 142.238 75.7038ZM137.634 74.7236C138.053 75.2064 138.602 75.4458 139.301 75.4458C140 75.4458 140.549 75.2064 140.967 74.7236C141.386 74.2408 141.595 73.588 141.595 72.7702C141.595 71.9523 141.386 71.3148 140.964 70.8354C140.541 70.3526 139.989 70.1133 139.308 70.1133C138.628 70.1133 138.06 70.3491 137.642 70.8243C137.223 71.2995 137.014 71.9481 137.014 72.7702C137.014 73.5922 137.223 74.2408 137.642 74.7236H137.634Z" fill="white"/>
<path d="M147.465 76.8526C145.851 76.8526 145.044 76.0014 145.044 74.2949V70.3553H143.825V68.896H145.092L145.5 66.6074H146.819V68.896H149.954V70.3553H146.819V74.247C146.819 74.9622 147.084 75.3195 147.614 75.3195C148.115 75.3195 148.56 74.8734 148.96 73.9744L150.323 74.6598C149.651 76.1193 148.698 76.8526 147.469 76.8526H147.465Z" fill="white"/>
<path d="M150.884 80.2142C150.107 80.2142 149.46 80.0047 148.953 79.5732L149.603 78.2094C149.916 78.5708 150.26 78.7554 150.622 78.7554C151.112 78.7554 151.355 78.4453 151.355 77.8265V68.8931H153.107V77.8598C153.107 78.6888 152.898 79.2895 152.479 79.6613C152.061 80.0262 151.527 80.2108 150.884 80.2184V80.2108V80.2142ZM152.229 67.5848C151.938 67.5959 151.662 67.4927 151.452 67.2974C151.355 67.2052 151.273 67.091 151.22 66.9583C151.168 66.833 151.138 66.6967 151.145 66.5566C151.145 66.4203 151.168 66.2802 151.22 66.1513C151.273 66.0259 151.355 65.9043 151.452 65.8122C151.665 65.6242 151.942 65.5137 152.229 65.5137C152.517 65.5137 152.794 65.6169 153.007 65.8122C153.111 65.908 153.193 66.0222 153.246 66.1513C153.298 66.2802 153.328 66.4203 153.32 66.5566C153.32 66.693 153.298 66.833 153.238 66.951C153.179 67.0689 153.104 67.1905 152.999 67.2826C152.894 67.3784 152.778 67.4558 152.644 67.5075C152.509 67.559 152.371 67.5811 152.226 67.5811L152.229 67.5848Z" fill="white"/>
<path d="M157.46 76.8528C156.56 76.8528 155.835 76.628 155.279 76.1896C154.721 75.747 154.441 75.1539 154.441 74.4019C154.441 73.7207 154.733 73.1414 155.312 72.6662C155.891 72.1911 156.619 71.9552 157.494 71.9552C158.368 71.9552 159.149 72.2355 159.77 72.8029V71.8595C159.77 71.3024 159.624 70.8751 159.34 70.5692C159.056 70.2674 158.645 70.1127 158.114 70.1127C157.042 70.1127 156.377 70.6503 156.119 71.7263L154.513 71.3877C154.726 70.5581 155.155 69.8984 155.794 69.4196C156.433 68.9368 157.229 68.6973 158.182 68.6973C159.22 68.6973 160.039 68.9663 160.644 69.5043C161.242 70.0426 161.545 70.8307 161.545 71.8629V76.6502H159.837V75.67C159.262 76.4476 158.473 76.8382 157.468 76.8382L157.46 76.8493V76.8528ZM157.786 75.5701C158.563 75.5701 159.224 75.1872 159.766 74.4206V74.1813C159.228 73.5396 158.563 73.2191 157.786 73.2191C157.333 73.2191 156.96 73.3294 156.683 73.5472C156.549 73.643 156.444 73.772 156.37 73.9191C156.295 74.0668 156.257 74.2292 156.257 74.3873C156.257 74.5462 156.287 74.7155 156.362 74.8625C156.433 75.0103 156.541 75.1428 156.676 75.2427C156.956 75.4598 157.319 75.5701 157.789 75.5701L157.782 75.5777L157.786 75.5701Z" fill="white"/>
<path d="M163.241 76.6581V68.8929H164.949V70.2378C165.386 69.2578 166.125 68.7676 167.191 68.7676C167.818 68.7676 168.342 68.9666 168.745 69.3757C169.156 69.7814 169.361 70.3266 169.361 71.0085C169.361 71.4137 169.287 71.8229 169.152 72.21L167.545 72.0477C167.579 71.8375 167.598 71.6238 167.609 71.406C167.609 70.6027 167.273 70.2052 166.604 70.2052C166.152 70.2052 165.767 70.4411 165.461 70.9163C165.154 71.3915 164.997 72.0144 164.997 72.7997V76.6581H163.245H163.241Z" fill="white"/>
<path d="M115.813 70.0863C117.12 69.3716 118.907 68.3913 118.907 65.5352H116.74C116.74 67.131 115.951 67.5621 114.759 68.2218C113.451 68.9367 111.665 69.917 111.665 72.773H113.832C113.832 71.1775 114.62 70.746 115.813 70.0863Z" fill="#FF3C00"/>
<path d="M119.557 69.4277C119.557 71.0234 118.768 71.4549 117.576 72.1146C116.269 72.8291 114.482 73.8093 114.482 76.666H116.649C116.649 75.0698 117.438 74.639 118.63 73.9793C119.938 73.2641 121.724 72.2839 121.724 69.4277H119.557Z" fill="#FF3C00"/>
<path d="M3.02787 68.3906H5.33708L8.36368 76.646H6.48795L5.94988 75.1018H2.41508L1.87701 76.646H0.00125122L3.02787 68.3906ZM5.49028 73.7893L4.23479 70.1925H4.12643L2.87094 73.7893H5.49028Z" fill="white"/>
<path d="M11.7565 72.5174C11.7565 69.8529 13.2885 68.2832 15.7135 68.2832C17.5445 68.2832 19.0129 69.2046 19.1811 71.2534H17.4361C17.1969 70.2288 16.5169 69.8015 15.6538 69.8015C14.1965 69.8015 13.5837 70.9919 13.5837 72.5139C13.5837 74.0359 14.1815 75.2374 15.6538 75.2374C16.5131 75.2374 17.1969 74.8136 17.4361 73.7744H19.1811C19.0129 75.8382 17.5445 76.7594 15.6911 76.7594C13.2885 76.7594 11.7565 75.1895 11.7565 72.5139V72.5174Z" fill="white"/>
<path d="M19.9172 72.5174C19.9172 69.9819 21.494 68.2832 23.9116 68.2832C26.3292 68.2832 27.906 69.9819 27.906 72.5174C27.906 75.0529 26.3292 76.7629 23.9116 76.7629C21.494 76.7629 19.9172 75.0418 19.9172 72.5174ZM23.9116 75.2409C25.2867 75.2409 26.0639 74.1573 26.0639 72.5174C26.0639 70.8775 25.2867 69.805 23.9116 69.805C22.5365 69.805 21.7594 70.8664 21.7594 72.5174C21.7594 74.1684 22.5365 75.2409 23.9116 75.2409Z" fill="white"/>
<path d="M29.0344 68.3906H30.899L34.2694 73.8157H34.3067V68.3906H36.1003V76.646H34.1647L30.8654 71.3281H30.828V76.646H29.0344V68.3906Z" fill="white"/>
<path d="M37.5388 68.3906H43.0727V69.924H39.3287V71.8587H42.4263V73.285H39.3287V76.646H37.5352V68.3906H37.5388Z" fill="white"/>
<path d="M43.9322 68.3904H49.6454V69.9238H45.722V71.7732H49.2866V73.1516H45.722V75.1085H49.7649V76.6416H43.9322V68.3867V68.3904Z" fill="white"/>
<path d="M50.9121 68.3906H54.2974C56.5207 68.3906 57.4885 69.5334 57.4885 71.1512C57.4885 72.3194 56.9728 73.2628 55.8145 73.6756L57.5707 76.646H55.7995L54.2077 73.8969H52.7019V76.646H50.9084V68.3906H50.9121ZM54.2376 72.3638C55.2167 72.3638 55.6501 71.8809 55.6501 71.147C55.6501 70.4137 55.2203 69.9198 54.2376 69.9198H52.7056V72.3596H54.2376V72.3638Z" fill="white"/>
<path d="M58.6206 68.3904H64.3338V69.9238H60.4104V71.7732H63.9751V73.1516H60.4104V75.1085H64.4534V76.6416H58.6206V68.3867V68.3904Z" fill="white"/>
<path d="M65.6043 68.3906H67.4689L70.8391 73.8157H70.8766V68.3906H72.6705V76.646H70.7344L67.4352 71.3281H67.3979V76.646H65.6043V68.3906Z" fill="white"/>
<path d="M73.8214 72.5174C73.8214 69.8529 75.3531 68.2832 77.7783 68.2832C79.609 68.2832 81.0776 69.2046 81.2454 71.2534H79.5008C79.2614 70.2288 78.5816 69.8015 77.7186 69.8015C76.2611 69.8015 75.6479 70.9919 75.6479 72.5139C75.6479 74.0359 76.2459 75.2374 77.7186 75.2374C78.5774 75.2374 79.2614 74.8136 79.5008 73.7744H81.2454C81.0776 75.8382 79.609 76.7594 77.7554 76.7594C75.3531 76.7594 73.8214 75.1895 73.8214 72.5139V72.5174Z" fill="white"/>
<path d="M82.3332 68.3904H88.0458V69.9238H84.1229V71.7732H87.6872V73.1516H84.1229V75.1085H88.1659V76.6416H82.3332V68.3867V68.3904Z" fill="white"/>
<path d="M92.3434 68.3906H95.7397C97.6044 68.3906 98.4528 69.2051 98.4528 70.4547C98.4528 71.3503 98.0338 71.8587 97.2458 72.1057C98.4896 72.4373 99.0279 73.2038 99.0279 74.2284C99.0279 75.5624 98.0935 76.646 95.882 76.646H92.3434V68.3906ZM95.669 71.7408C96.2066 71.7408 96.6624 71.4571 96.6624 70.7863C96.6624 70.1155 96.2066 69.8796 95.669 69.8796H94.1366V71.7443H95.669V71.7408ZM95.8258 75.1608C96.8309 75.1608 97.1785 74.6301 97.1785 74.0293C97.1785 73.4286 96.8309 72.8611 95.8258 72.8611H94.1408V75.1608H95.8258Z" fill="white"/>
<path d="M102.051 73.6124L99.0244 68.3906H101.057L102.97 71.9066L104.895 68.3906H106.927L103.901 73.6124V76.6418H102.047V73.6124H102.051Z" fill="white"/>
</g>
</g>
</g>
<defs>
<clipPath id="clip0_1_1126">
<rect width="342" height="80.47" fill="white" transform="translate(0 0.0800781)"/>
</clipPath>
<clipPath id="clip1_1_1126">
<rect width="341.997" height="80.47" fill="white" transform="translate(0.00125122 0.0800781)"/>
</clipPath>
</defs>
</svg>
