<svg xmlns="http://www.w3.org/2000/svg" width="340" height="106" fill="none"><g clip-path="url('#clip0_1_453')"><g clip-path="url('#clip1_1_453')"><path fill="url('#paint0_linear_1_453')" d="M117.448 44.428c.486-.39.971-.875 1.263-1.36a14.1 14.1 0 0 0 2.914-5.926c.68-3.497-.292-7.091-2.72-9.714-2.331-2.428-5.246-3.4-10.103-3.4H89.277L86.17 41.513h-8.451l2.234 9.034h4.663l-3.497 20.01h22.633c5.44 0 9.52-1.36 12.92-4.176a16.68 16.68 0 0 0 5.537-10.103c.777-3.788-.389-7.77-3.109-10.49-.486-.68-1.068-1.07-1.651-1.36m-18.65-11.366h7.479c2.623 0 3.497.68 4.08 1.36.583.777.777 1.749.583 2.72-.195 1.069-.778 2.137-1.652 2.817-.874.777-1.943 1.457-4.663 1.457h-7.188zm12.627 22.828a7.05 7.05 0 0 1-2.137 3.788c-1.36 1.263-3.108 1.846-5.731 1.846h-9.714l1.554-8.937.389-2.04h9.908c3.303 0 4.371.972 4.954 1.749.777.971.971 2.331.777 3.594"/><path fill="url('#paint1_linear_1_453')" d="m55.668 24.028-31.376 46.53h12.53l7.383-10.977h18.262l2.72 10.977h12.531l-11.657-46.53zm-5.343 26.52 7.285-10.783 2.623 10.782z"/><path fill="url('#paint2_linear_1_453')" d="M181.074 24.028h-43.518l-1.36 7.577h17.485l-6.897 38.953h8.548l6.897-38.953h17.485z"/><path fill="url('#paint3_linear_1_453')" d="M199.725 41.416c-2.526-4.274-6.509-6.411-12.046-6.411a18.9 18.9 0 0 0-14.376 6.217c-3.789 4.08-5.926 9.422-5.829 14.96a15.76 15.76 0 0 0 3.886 11.17c2.623 2.817 6.217 4.177 10.88 4.177 5.148.097 10.005-2.137 13.21-6.12l-.68 5.052h7.966l6.12-34.582h-8.16zm-5.537 19.04c-2.429 2.525-5.829 3.885-9.326 3.788-5.731 0-9.131-3.4-9.131-9.034-.097-3.4 1.263-6.703 3.594-9.131 2.429-2.526 5.829-3.886 9.326-3.789 5.828 0 9.228 3.497 9.228 9.034.097 3.4-1.263 6.703-3.691 9.131"/><path fill="url('#paint4_linear_1_453')" d="M230.518 41.222c5.634 0 7.771 1.457 7.868 4.566v.388l7.285-3.302c-.68-5.635-5.925-7.966-14.473-7.966-11.171 0-18.068 3.886-18.068 12.045 0 5.634 3.4 8.354 10.588 8.937l7.285.68c3.4.292 4.857 1.166 4.857 3.497 0 3.4-3.205 5.051-9.617 5.051-5.828 0-8.159-1.36-8.353-4.565v-.291s-7.383 3.205-7.383 3.302c.68 5.731 6.023 7.868 14.571 7.868 11.948 0 19.428-3.982 19.428-12.53 0-5.635-3.206-7.869-10.686-8.646l-7.188-.68c-3.303-.291-4.954-1.457-4.954-3.691-.097-3.011 2.817-4.663 8.84-4.663"/><path fill="url('#paint5_linear_1_453')" d="m306.966 35.977-16.417 26.13-6.896-26.13h-17.485l1.748-9.909-9.131 3.983-1.069 5.926h-6.605l-1.36 7.09h6.703l-2.526 14.96c-1.36 7.868 2.331 13.502 11.365 13.502h6.994l-2.137-7.576h-2.525c-4.663 0-6.217-1.943-5.343-6.509.874-4.565 2.526-14.28 2.526-14.28h12.336l7.577 28.462-6.12 9.714h8.743l28.364-45.363z"/><path fill="#004052" d="m64.216 66.38 11.17-4.953-.485-1.846H62.467zM83.255 57.93l12.142-5.44.389-1.943H84.615z" opacity=".8"/></g></g><defs><linearGradient id="paint0_linear_1_453" x1="-21.383" x2="350.135" y1="92.095" y2="-46.493" gradientUnits="userSpaceOnUse"><stop stop-color="#006C8A"/><stop offset=".25" stop-color="#217981"/><stop offset=".5" stop-color="#009CB2"/><stop offset=".75" stop-color="#00D4D4"/><stop offset="1" stop-color="#00F3F3"/></linearGradient><linearGradient id="paint1_linear_1_453" x1="-25.303" x2="346.214" y1="81.603" y2="-56.994" gradientUnits="userSpaceOnUse"><stop stop-color="#006C8A"/><stop offset=".25" stop-color="#217981"/><stop offset=".5" stop-color="#009CB2"/><stop offset=".75" stop-color="#00D4D4"/><stop offset="1" stop-color="#00F3F3"/></linearGradient><linearGradient id="paint2_linear_1_453" x1="-15.553" x2="355.954" y1="107.716" y2="-30.881" gradientUnits="userSpaceOnUse"><stop stop-color="#006C8A"/><stop offset=".25" stop-color="#217981"/><stop offset=".5" stop-color="#009CB2"/><stop offset=".75" stop-color="#00D4D4"/><stop offset="1" stop-color="#00F3F3"/></linearGradient><linearGradient id="paint3_linear_1_453" x1="-8.031" x2="363.487" y1="127.898" y2="-10.7" gradientUnits="userSpaceOnUse"><stop stop-color="#006C8A"/><stop offset=".25" stop-color="#217981"/><stop offset=".5" stop-color="#009CB2"/><stop offset=".75" stop-color="#00D4D4"/><stop offset="1" stop-color="#00F3F3"/></linearGradient><linearGradient id="paint4_linear_1_453" x1="-3.58" x2="367.927" y1="139.811" y2="1.214" gradientUnits="userSpaceOnUse"><stop stop-color="#006C8A"/><stop offset=".25" stop-color="#217981"/><stop offset=".5" stop-color="#009CB2"/><stop offset=".75" stop-color="#00D4D4"/><stop offset="1" stop-color="#00F3F3"/></linearGradient><linearGradient id="paint5_linear_1_453" x1="2.58" x2="374.088" y1="156.328" y2="17.73" gradientUnits="userSpaceOnUse"><stop stop-color="#006C8A"/><stop offset=".25" stop-color="#217981"/><stop offset=".5" stop-color="#009CB2"/><stop offset=".75" stop-color="#00D4D4"/><stop offset="1" stop-color="#00F3F3"/></linearGradient><clipPath id="clip0_1_453"><path fill="#fff" d="M0 .23h340v104.91H0z"/></clipPath><clipPath id="clip1_1_453"><path fill="#fff" d="M0 .23h340v104.91H0z"/></clipPath></defs></svg>