<svg xmlns="http://www.w3.org/2000/svg" width="342" height="25" fill="none"><g clip-path="url('#clip0_1_822')"><g clip-path="url('#clip1_1_822')"><path fill="#CCC" d="M172.081 10.19a6.564 6.564 0 0 0-6.431 6.428h-8.208a6.565 6.565 0 0 0-13.126 0h-8.208a6.565 6.565 0 0 0-13.126 0h-8.208a6.565 6.565 0 0 0-13.126 0h-8.207a6.564 6.564 0 0 0-13.126 0h-8.208a6.564 6.564 0 0 0-13.126 0h-8.208a6.564 6.564 0 0 0-13.125 0H29.44a6.565 6.565 0 0 0-13.126 0H8.107a6.565 6.565 0 0 0-6.713-6.428V8.822H343v1.367h-.101a6.563 6.563 0 0 0-6.563 6.43h-8.208a6.565 6.565 0 0 0-13.126 0h-8.208a6.564 6.564 0 0 0-13.125 0h-8.209a6.564 6.564 0 0 0-13.125 0h-8.208a6.564 6.564 0 0 0-13.126 0h-8.208a6.564 6.564 0 0 0-13.125 0h-8.208a6.565 6.565 0 0 0-13.126 0h-8.208a6.564 6.564 0 0 0-13.126 0h-8.207a6.565 6.565 0 0 0-6.479-6.43h-.233"/></g></g><defs><clipPath id="clip0_1_822"><path fill="#fff" d="M342 24.72H0v-24h342z"/></clipPath><clipPath id="clip1_1_822"><path fill="#fff" d="M343 16.618H1V8.822h342z"/></clipPath></defs></svg>