<svg xmlns="http://www.w3.org/2000/svg" width="15" height="221" fill="none"><g clip-path="url('#clip0_1_245')"><g clip-path="url('#clip1_1_245')"><path fill="#CCC" fill-rule="evenodd" d="M9.042 9.134A8.445 8.445 0 0 1 .77.56h-1.76v219.897l1.761-.001-.002-.192a8.445 8.445 0 0 1 8.272-8.443v-10.56a8.445 8.445 0 0 1 0-16.887v-10.56a8.446 8.446 0 0 1 0-16.887v-10.559a8.446 8.446 0 0 1 0-16.888v-10.56a8.445 8.445 0 0 1 0-16.886v-10.56a8.445 8.445 0 0 1 0-16.886v-10.56a8.445 8.445 0 0 1 0-16.888V36.58a8.445 8.445 0 0 1 0-16.886z" clip-rule="evenodd"/></g></g><defs><clipPath id="clip0_1_245"><path fill="#fff" d="M0 .56h15v220H0z"/></clipPath><clipPath id="clip1_1_245"><path fill="#fff" d="M-1 .56H9.699v220H-1z"/></clipPath></defs></svg>