<svg xmlns="http://www.w3.org/2000/svg" width="340" height="106" fill="none"><g clip-path="url('#clip0_1_490')"><path fill="#5757F5" d="m42.474 52.324 17.792 27.957a2.26 2.26 0 0 0 1.953.992h6.609c1.23.027 2.247-.965 2.274-2.227V19.78a2.26 2.26 0 0 0-2.3-2.254c-.697 0-1.339.322-1.767.858l-24.561 31.23c-.535.805-.535 1.878 0 2.71M22.46 81.273h11.746c1.231.027 2.248-.966 2.275-2.227V63.968c-.027-1.261-1.07-2.28-2.328-2.254-.669 0-1.311.322-1.74.859L20.669 77.598a2.313 2.313 0 0 0 .482 3.22c.374.294.83.455 1.31.455"/><path fill="#242A35" d="M232.25 47.494c-.134-.161-.295-.322-.429-.456l-.241-.215-.133-.107a10.4 10.4 0 0 0-1.819-1.234 11.2 11.2 0 0 0-2.222-1.047 12.5 12.5 0 0 0-2.435-.644 14.3 14.3 0 0 0-6.394.322 16 16 0 0 0-3.558 1.503 15 15 0 0 0-3.023 2.334 17 17 0 0 0-2.355 3.005 14 14 0 0 0-1.552 3.541 14.63 14.63 0 0 0 0 7.888 14.3 14.3 0 0 0 1.552 3.515 17 17 0 0 0 2.355 3.005c.909.912 1.926 1.69 3.023 2.334a18.6 18.6 0 0 0 3.531 1.503c2.141.644 4.388.75 6.582.322a11.6 11.6 0 0 0 2.461-.698 18.5 18.5 0 0 0 2.194-1.1c.697-.402 1.365-.885 2.007-1.368a4.6 4.6 0 0 0 .509-.51l.08-.08c.16-.188.268-.403.348-.618l.026-.187a1.4 1.4 0 0 0-.214-.859l-.079-.107c-.055-.08-.108-.188-.188-.269l-.187-.268c-.375-.51-.749-1.046-1.124-1.502a1.5 1.5 0 0 0-.589-.43 1.03 1.03 0 0 0-.695 0 2.8 2.8 0 0 0-.884.617l-.347.296c-.348.268-.508.456-.99.804-.428.322-.883.59-1.364.832a6.8 6.8 0 0 1-1.659.59 9 9 0 0 1-5.619-.59 9.9 9.9 0 0 1-3.023-2.12 10.5 10.5 0 0 1-2.114-3.138 9.32 9.32 0 0 1 0-7.566c.509-1.181 1.204-2.254 2.114-3.166a11.7 11.7 0 0 1 3.05-2.174 8.22 8.22 0 0 1 5.244-.617c.589.134 1.177.322 1.739.537.535.241 1.044.51 1.551.805 1.045.617 2.194 2.36 3.345.966l1.632-2.2a.93.93 0 0 0 .161-.751 1.4 1.4 0 0 0-.267-.698M131.542 70.97 113.616 30.11a1.66 1.66 0 0 0-1.498-1.047h-2.863c-.669 0-1.258.403-1.498.993l-17.98 40.889c-.24.51-.214 1.1.107 1.583.294.483.83.778 1.391.778h2.65a1.54 1.54 0 0 0 1.498-.993l4.307-10.088h21.779l4.281 10.088c.24.617.856 1.02 1.525 1.046h2.596a1.65 1.65 0 0 0 1.39-.644 1.85 1.85 0 0 0 .241-1.743m-29.511-13.978.08-.16 8.642-20.15 8.669 20.31zM295.526 53.907a15.6 15.6 0 0 0-2.06-4.427 14.5 14.5 0 0 0-2.328-2.468c-.829-.725-1.766-1.342-2.783-1.771a16 16 0 0 0-3.103-1.154 14.25 14.25 0 0 0-7.278.134c-1.204.349-2.381.832-3.451 1.503s-2.06 1.449-2.944 2.36a12.7 12.7 0 0 0-2.193 3.006 15.8 15.8 0 0 0-1.419 3.568 13.8 13.8 0 0 0-.32 6.09c.08.805.241 1.583.455 2.335a16 16 0 0 0 2.059 4.453c.67.912 1.473 1.744 2.329 2.469a11.2 11.2 0 0 0 2.782 1.797c.99.483 2.033.886 3.103 1.154 3.639.885 7.519.295 10.73-1.637 1.07-.67 2.06-1.448 2.942-2.334.857-.858 1.552-1.851 2.114-2.897l.054-.108a.95.95 0 0 0 .08-.993.76.76 0 0 0-.669-.402h-4.281c-.374 0-.722.161-.936.43a9.5 9.5 0 0 1-1.873 1.716 9 9 0 0 1-2.435 1.1c-1.9.564-3.933.483-5.779-.16a9.8 9.8 0 0 1-2.756-1.503 7.5 7.5 0 0 1-2.007-2.388 14 14 0 0 1-.935-3.112l-.027-.134h.133l21.993-.054c.91 0 1.418-.563 1.418-1.556a13.7 13.7 0 0 0-.615-5.017m-4.683 1.958-17.791.08.053-.16c.295-1.02.749-1.959 1.311-2.844.695-1.047 1.606-1.932 2.622-2.656a9 9 0 0 1 2.435-1.1c1.899-.564 3.932-.483 5.779.16.99.35 1.926.86 2.755 1.503.83.644 1.499 1.476 2.007 2.388.428.751.749 1.583.937 2.442l.026.134h-.134zM163.14 68.905a18 18 0 0 0 2.328-3.005 15.5 15.5 0 0 0 1.498-3.569 14.6 14.6 0 0 0 0-7.888 16 16 0 0 0-1.498-3.568 15.1 15.1 0 0 0-5.351-5.366 15 15 0 0 0-3.505-1.502 14.27 14.27 0 0 0-9.552.59 16 16 0 0 0-3.532 2.227l-.187.16V45.43a1.3 1.3 0 0 0-1.15-1.45h-2.542c-.75-.08-1.418.43-1.498 1.181v34.638a1.43 1.43 0 0 0 1.364 1.475h2.3539999999999996c.402 0 .803-.134 1.098-.402.267-.269.428-.644.401-1.047V69.79l.188.161a14.7 14.7 0 0 0 3.478 2.2 13.94 13.94 0 0 0 9.551.59 16 16 0 0 0 3.558-1.502 15.5 15.5 0 0 0 2.997-2.334m-6.823-1.45a8.69 8.69 0 0 1-7.303 0 9.05 9.05 0 0 1-3.024-2.2 10 10 0 0 1-2.061-3.165 9.81 9.81 0 0 1 0-7.486 11 11 0 0 1 2.061-3.112 9.6 9.6 0 0 1 3.024-2.146 8.69 8.69 0 0 1 7.303 0 10.4 10.4 0 0 1 2.997 2.146 10.4 10.4 0 0 1 2.033 3.112 9.56 9.56 0 0 1 0 7.486c-.508 1.154-1.177 2.254-2.033 3.193a9.6 9.6 0 0 1-2.997 2.173M177.321 44.007h-2.247c-.75-.08-1.418.429-1.499 1.18v34.637c0 .376.134.752.401 1.047.268.268.642.402 1.017.402h2.301c.402 0 .803-.134 1.097-.402.268-.269.428-.644.401-1.047V69.79l.188.161a14.7 14.7 0 0 0 3.477 2.2 13.95 13.95 0 0 0 9.552.59 16 16 0 0 0 3.559-1.502 16 16 0 0 0 3.023-2.334 16.6 16.6 0 0 0 2.301-3.005 15.5 15.5 0 0 0 1.499-3.569 14.63 14.63 0 0 0 0-7.888 16 16 0 0 0-1.499-3.568 15.24 15.24 0 0 0-5.324-5.366 15 15 0 0 0-3.505-1.502 14.26 14.26 0 0 0-9.551.59 16 16 0 0 0-3.532 2.227l-.214.214v-1.556a1.29 1.29 0 0 0-1.125-1.475zm2.033 10.651a11 11 0 0 1 2.06-3.112c.857-.912 1.9-1.637 3.023-2.173a8.69 8.69 0 0 1 7.305 0c1.123.536 2.168 1.26 3.024 2.146a10.4 10.4 0 0 1 2.033 3.112 9.57 9.57 0 0 1 0 7.486 10.8 10.8 0 0 1-2.033 3.193 10 10 0 0 1-2.971 2.2 8.69 8.69 0 0 1-7.303 0 9.05 9.05 0 0 1-3.024-2.2 10 10 0 0 1-2.06-3.166 9.68 9.68 0 0 1-.054-7.486M261.921 45.08a1.347 1.347 0 0 0-1.177-1.476h-2.595a1.34 1.34 0 0 0-1.472 1.154v16.769000000000002a5.9 5.9 0 0 1-.615 2.79 5.6 5.6 0 0 1-1.552 2.066 7.5 7.5 0 0 1-2.14 1.26 6.84 6.84 0 0 1-5.432-.268 5.4 5.4 0 0 1-2.006-1.717 5.86 5.86 0 0 1-1.098-2.334 12.5 12.5 0 0 1-.347-2.63V45.51a2.4 2.4 0 0 0-.348-1.422 1.77 1.77 0 0 0-1.418-.51h-1.632a1.73 1.73 0 0 0-1.311.51 1.92 1.92 0 0 0-.508 1.503v15.158c-.028 1.664.241 3.3.722 4.883a12.1 12.1 0 0 0 2.22 4.025c.99 1.154 2.221 2.093 3.612 2.683a13.34 13.34 0 0 0 7.652.724 10.5 10.5 0 0 0 2.007-.697c.615-.296 1.177-.644 1.659-1.1l.348-.322.187-.188v1.153c0 .35.134.671.375.913.267.349.696.536 1.15.51h2.301a1.43 1.43 0 0 0 1.016-.403c.295-.268.456-.644.402-1.046zM319.579 61.205a8 8 0 0 0-2.033-2.603 11.8 11.8 0 0 0-3.104-1.851 20 20 0 0 0-3.906-1.207 18 18 0 0 1-1.927-.59 7.6 7.6 0 0 1-1.605-.832 3.66 3.66 0 0 1-1.498-1.744 2.93 2.93 0 0 1 0-1.664c.187-.617.936-2.28 3.906-2.468 2.836-.188 4.254 1.315 4.736 1.985.08.08.775.993 1.257 1.556.08.081.187.162.294.215.401.161.883.107 1.231-.16l1.712-1.289c.375-.241.616-.643.616-1.1V49.4a3.2 3.2 0 0 0-.402-.94 25 25 0 0 0-1.658-2.092 9.5 9.5 0 0 0-1.82-1.61c-.722-.43-1.472-.778-2.301-.992a12.38 12.38 0 0 0-6.983.268 8.6 8.6 0 0 0-3.104 1.69 7.9 7.9 0 0 0-2.033 2.656c-.937 2.066-.99 4.454-.08 6.547a7.2 7.2 0 0 0 1.846 2.468 14.6 14.6 0 0 0 2.755 1.851 21.6 21.6 0 0 0 3.612 1.315c.375.08.723.188 1.124.295.375.107.75.215 1.125.295q1.002.242 1.925.725c.509.241.964.59 1.338 1.046a2.75 2.75 0 0 1-.053 3.193q-.562.724-1.365 1.207a5.9 5.9 0 0 1-1.712.697 6.74 6.74 0 0 1-3.104 0 6.9 6.9 0 0 1-1.552-.59 6 6 0 0 1-1.391-.939 7.5 7.5 0 0 1-.99-1.422 2.3 2.3 0 0 0-.562-.778 1.26 1.26 0 0 0-1.418-.16l-2.06.965c-.187.08-.32.188-.481.322a1.2 1.2 0 0 0-.268.376c-.08.214-.107.429-.054.644q.04.321.161.644a9 9 0 0 0 1.498 2.602 8.2 8.2 0 0 0 2.542 2.066c.91.536 1.9.939 2.917 1.154 2.354.563 4.842.482 7.17-.215a9.8 9.8 0 0 0 3.371-1.717 7.7 7.7 0 0 0 2.274-2.79c1.071-2.2 1.071-4.75.054-6.976"/></g><defs><clipPath id="clip0_1_490"><path fill="#fff" d="M0 .14h340v105.58H0z"/></clipPath></defs></svg>