<svg xmlns="http://www.w3.org/2000/svg" width="15" height="221" fill="none"><g clip-path="url('#clip0_1_230')"><g clip-path="url('#clip1_1_230')"><path fill="#fff" fill-rule="evenodd" d="M5.958 211.986a8.445 8.445 0 0 1 8.271 8.574h1.76V.663h-1.761l.002.192A8.445 8.445 0 0 1 5.958 9.3v10.56a8.446 8.446 0 0 1 0 16.886v10.56a8.445 8.445 0 0 1 0 16.888v10.559a8.445 8.445 0 0 1 0 16.887v10.56a8.445 8.445 0 0 1 0 16.887v10.56a8.445 8.445 0 0 1 0 16.886v10.56a8.447 8.447 0 0 1 0 16.887v10.56a8.445 8.445 0 0 1 0 16.887z" clip-rule="evenodd"/></g></g><defs><clipPath id="clip0_1_230"><path fill="#fff" d="M15 220.56H0V.56h15z"/></clipPath><clipPath id="clip1_1_230"><path fill="#fff" d="M16 220.56H5.301V.56H16z"/></clipPath></defs></svg>