<svg xmlns="http://www.w3.org/2000/svg" width="342" height="25" fill="none"><g clip-path="url('#clip0_1_807')"><g clip-path="url('#clip1_1_807')"><path fill="#fff" d="M-.899 15.282a6.564 6.564 0 0 0 6.563-6.43h8.208a6.564 6.564 0 0 0 13.126 0h8.208a6.564 6.564 0 0 0 13.125 0h8.209a6.564 6.564 0 0 0 13.125 0h8.208a6.564 6.564 0 0 0 13.126 0h8.208a6.564 6.564 0 0 0 13.125 0h8.208a6.565 6.565 0 0 0 13.126 0h8.208a6.564 6.564 0 0 0 13.126 0h8.207a6.565 6.565 0 0 0 6.479 6.43h.114l.119-.002a6.563 6.563 0 0 0 6.431-6.428h8.208a6.565 6.565 0 0 0 13.126 0h8.208a6.565 6.565 0 0 0 13.126 0h8.208a6.564 6.564 0 0 0 13.125 0h8.208a6.565 6.565 0 0 0 13.126 0h8.208a6.565 6.565 0 0 0 13.126 0h8.208a6.563 6.563 0 0 0 13.125 0h8.208a6.565 6.565 0 0 0 13.126 0h8.207a6.565 6.565 0 0 0 6.713 6.428v1.368H-1v-1.367z"/></g></g><defs><clipPath id="clip0_1_807"><path fill="#fff" d="M0 .75h342v24H0z"/></clipPath><clipPath id="clip1_1_807"><path fill="#fff" d="M-1 8.852h342v7.796H-1z"/></clipPath></defs></svg>