<svg xmlns="http://www.w3.org/2000/svg" width="340" height="105" fill="none"><g clip-path="url('#clip0_1_464')"><g clip-path="url('#clip1_1_464')"><mask id="mask0_1_464" width="261" height="26" x="5" y="37" maskUnits="userSpaceOnUse" style="mask-type:luminance"><path fill="#fff" d="M265.625 37.974H5.847v24.578h259.778z"/></mask><g fill="#FF5721" mask="url('#mask0_1_464')"><path d="M20.79 56.259c-4.072 0-6.831-2.175-6.831-5.996s2.759-5.997 6.831-5.997c2.335 0 4.246.755 5.634 2.325.44.498 1.155.702 1.743.395l4.226-2.203c.745-.389 1.018-1.331.478-1.975-2.346-2.798-6.676-4.834-11.982-4.834-8.999 0-15.042 4.415-15.042 12.289s6.043 12.289 14.746 12.289c5.58 0 9.976-2.022 12.372-4.87.541-.644.273-1.588-.469-1.98l-4.199-2.222c-.587-.31-1.304-.11-1.742.39-1.46 1.668-3.409 2.389-5.765 2.389M58.32 38.731c-.81 0-1.467.659-1.467 1.471v6.733H44.8v-6.733c0-.812-.656-1.47-1.466-1.47h-5.08c-.81 0-1.467.658-1.467 1.47v20.121c0 .812.657 1.47 1.466 1.47h5.081c.81 0 1.466-.658 1.466-1.47v-7.062h12.053v7.062c0 .812.657 1.47 1.466 1.47H63.4c.81 0 1.467-.658 1.467-1.47v-20.12c0-.813-.657-1.472-1.467-1.472zM77.335 61.794c.81 0 1.466-.659 1.466-1.47V40.201c0-.812-.656-1.47-1.466-1.47h-5.081c-.81 0-1.466.658-1.466 1.47v20.121c0 .812.656 1.47 1.466 1.47zM92.35 55.633v-15.43c0-.813-.656-1.472-1.466-1.472h-5.081c-.81 0-1.466.659-1.466 1.471v20.121c0 .812.656 1.47 1.466 1.47h19.827c.81 0 1.466-.658 1.466-1.47v-3.22c0-.812-.656-1.47-1.466-1.47zM117.391 61.794c.81 0 1.466-.659 1.466-1.47V40.201c0-.812-.656-1.47-1.466-1.47h-5.081c-.81 0-1.466.658-1.466 1.47v20.121c0 .812.656 1.47 1.466 1.47zM150.604 38.731h-14.659a1.47 1.47 0 0 0-1.467 1.471v20.121c0 .812.657 1.47 1.467 1.47h5.08c.81 0 1.466-.658 1.466-1.47V55.37h8.113c6.601 0 10.451-2.734 10.451-8.335 0-5.568-3.85-8.303-10.451-8.303M149.946 50h-7.455v-5.502h7.455c2.07 0 3.547.692 3.547 2.735 0 2.042-1.477 2.767-3.547 2.767M172.022 61.794c.809 0 1.466-.659 1.466-1.47V40.201c0-.812-.657-1.47-1.466-1.47h-5.082c-.81 0-1.465.658-1.465 1.47v20.121c0 .812.655 1.47 1.465 1.47zM195.149 38.731H180.49c-.81 0-1.465.659-1.465 1.471v20.121c0 .812.655 1.47 1.465 1.47h5.081a1.47 1.47 0 0 0 1.467-1.47V55.37h8.111c6.601 0 10.452-2.734 10.452-8.335 0-5.568-3.851-8.303-10.452-8.303M194.492 50h-7.454v-5.502h7.454c2.069 0 3.547.692 3.547 2.735 0 2.042-1.478 2.767-3.547 2.767M216.953 55.995V52.8h12.427c.809 0 1.465-.659 1.465-1.471v-2.396c0-.812-.656-1.47-1.465-1.47h-12.427V44.53h15.58c.809 0 1.465-.659 1.465-1.47v-2.858c0-.812-.656-1.47-1.465-1.47H210.57c-.81 0-1.465.658-1.465 1.47v20.121c0 .812.655 1.47 1.465 1.47h22.324c.81 0 1.465-.658 1.465-1.47v-2.857c0-.812-.655-1.47-1.465-1.47zM263.702 61.794c1.254 0 1.929-1.477 1.111-2.43l-4.385-5.115c3.448-1.153 5.197-3.59 5.197-7.38 0-5.502-4.31-8.138-10.452-8.138h-14.857c-.809 0-1.465.659-1.465 1.471v20.121c0 .812.656 1.47 1.465 1.47h5.016c.81 0 1.466-.658 1.466-1.47v-5.316h5.386l4.703 5.718a2.93 2.93 0 0 0 2.262 1.069zm-16.904-12.157v-5.14h7.718c2.069 0 3.546.593 3.546 2.57s-1.477 2.57-3.546 2.57z"/></g><mask id="mask1_1_464" width="88" height="88" x="246" y="15" maskUnits="userSpaceOnUse" style="mask-type:luminance"><path fill="#fff" d="M333.257 15.63h-86.892v86.693h86.892z"/></mask><g fill="#FF5721" mask="url('#mask1_1_464')"><path d="M321.788 40.135c.854.425 1.906.185 2.384-.64.463-.8.184-1.814-.609-2.292a33 33 0 0 0-3.003-1.602 2.065 2.065 0 0 1-1.091-2.484 32.85 32.85 0 0 0 .939-15.966 1.623 1.623 0 0 0-2.884-.73q-.371.453-.725.92c-.228.299-.352.663-.372 1.038a32.34 32.34 0 0 1-3.745 13.45c-.368.69-1.143 1.044-1.92.947a33 33 0 0 0-5.264-.23c-.492.018-.913.35-1.085.81-.29.774.204 1.646 1.025 1.758a52.9 52.9 0 0 1 16.35 5.021"/><path fill-rule="evenodd" d="M302.663 61.168c-.688 1.05-.215 2.479.991 2.832a62.3 62.3 0 0 0 13.401 2.37 5.19 5.19 0 0 0 4.784-2.518 85 85 0 0 0 5.648-11.17c.792-1.902.162-4.097-1.553-5.243a52.7 52.7 0 0 0-27.703-8.868c-2.253-.07-4.114 1.624-4.561 3.828a78 78 0 0 1-.373 1.748l-.021.094v.001q-.02.095-.043.188-.058.261-.121.523a84.642 84.642 0 0 1-3.451 11.166c-.335.867-.009 1.858.804 2.315a63 63 0 0 0 4.151 2.141 1.814 1.814 0 0 0 2.429-.902 78 78 0 0 0 3.892-10.68q.515-1.813.938-3.657c.12-.505.575-.864 1.095-.839l.326.018c2.15.122 3.828.233 5.857 1.292.595.312.829 1.03.584 1.656a73 73 0 0 1-7.074 13.705" clip-rule="evenodd"/><path d="M291.824 65.589c1.008.501 1.4 1.753.794 2.702a86 86 0 0 1-6.241 8.554c-.632.763.36 1.852 1.108 1.204a92 92 0 0 0 9.039-9.002 1.955 1.955 0 0 1 2.13-.552 62.2 62.2 0 0 0 14.37 3.281c1.245.133 1.879 1.593 1.055 2.534a86 86 0 0 1-12.01 11.302c-1.796 1.39-4.08 2.013-6.323 1.65a54.2 54.2 0 0 1-18.307-6.495c-1.001-.576-1.195-1.918-.458-2.807q.565-.681 1.115-1.374a85.6 85.6 0 0 0 7.932-11.893 1.974 1.974 0 0 1 2.698-.753 64 64 0 0 0 3.098 1.649M273.453 84.783a1.97 1.97 0 0 0-2.41.19 86 86 0 0 1-11.188 8.721 86 86 0 0 1-6.707 3.967c-2.205 1.171-1.579 4.572.916 4.498 8.853-.259 17.663-1.873 26.02-4.817a85 85 0 0 0 8.843-3.686c.891-.43.726-1.74-.229-2.003a54 54 0 0 1-15.245-6.87"/></g></g></g><defs><clipPath id="clip0_1_464"><path fill="#fff" d="M0 .23h340v104.61H0z"/></clipPath><clipPath id="clip1_1_464"><path fill="#fff" d="M0 .23h340v104.61H0z"/></clipPath></defs></svg>