<svg xmlns="http://www.w3.org/2000/svg" width="420" height="215" fill="none"><g clip-path="url('#clip0_1_422')"><g fill="#3640E8" clip-path="url('#clip1_1_422')"><path d="m274.534 45.224-1.522-2.983C261.6 19.854 238.919 5.943 213.829 5.943c-36.626 0-66.418 29.793-66.418 66.418s29.792 66.419 66.418 66.419c25.09 0 47.771-13.911 59.19-36.298l1.522-2.983-27.138-27.138 27.138-27.137zm-11.324 55.982c-10.251 17.575-28.885 28.352-49.388 28.352-31.54 0-57.203-25.663-57.203-57.203s25.67-57.197 57.21-57.197c20.504 0 39.13 10.777 49.389 28.352l-22.333 22.333-27.056-27.056-33.568 33.568 33.568 33.567 27.056-27.056 22.333 22.333zm-28.851-28.851-20.537 20.537-20.538-20.537 20.538-20.538zM4.647 176.096c0-12.18 9.03-21.622 21.623-21.622 7.6 0 14.313 3.861 17.876 9.801l-7.065 4.098c-2.019-3.685-6.063-5.94-10.811-5.94-8.136 0-13.487 5.643-13.487 13.663 0 8.021 5.345 13.602 13.487 13.602 4.748 0 8.853-2.256 10.811-5.88l7.065 4.098c-3.502 5.942-10.215 9.803-17.876 9.803-12.593 0-21.623-9.504-21.623-21.623M47.154 182.036c0-8.853 6.95-15.682 15.682-15.682s15.742 6.829 15.742 15.682-7.01 15.682-15.742 15.682-15.682-6.828-15.682-15.682m23.763 0c0-4.81-3.502-8.197-8.081-8.197-4.58 0-8.02 3.387-8.02 8.197s3.502 8.196 8.02 8.196 8.081-3.386 8.081-8.196M111.446 178.649v18.235h-7.662v-17.287c0-4.038-2.439-6.117-5.88-6.117-3.739 0-6.536 2.195-6.536 7.363v16.041h-7.662V167.18h7.662v3.326c1.781-2.675 4.87-4.158 8.853-4.158 6.293 0 11.225 4.396 11.225 12.294zM127.696 174.551v12.355c0 3.212 2.318 3.265 6.713 3.029v6.95c-10.75 1.185-14.374-1.958-14.374-9.979v-12.355h-5.169v-7.364h5.169v-6.001l7.661-2.317v8.318h6.713v7.364zM154.318 190.768c2.967 0 5.345-1.247 6.652-2.967l6.178 3.563c-2.791 4.037-7.249 6.354-12.951 6.354-9.979 0-16.279-6.828-16.279-15.682s6.354-15.682 15.682-15.682c8.792 0 15.031 6.95 15.031 15.682 0 1.132-.122 2.14-.298 3.15h-22.394c1.069 3.922 4.335 5.582 8.372 5.582zm6.652-11.523c-.948-4.274-4.159-6.002-7.363-6.002-4.098 0-6.89 2.195-7.783 6.002zM201.58 178.649v18.235h-7.661v-17.287c0-4.038-2.439-6.117-5.88-6.117-3.739 0-6.537 2.195-6.537 7.363v16.041h-7.662V167.18h7.662v3.326c1.782-2.675 4.871-4.158 8.853-4.158 6.294 0 11.225 4.396 11.225 12.294zM217.831 174.551v12.355c0 3.212 2.317 3.265 6.713 3.029v6.95c-10.751 1.185-14.374-1.958-14.374-9.979v-12.355H205v-7.364h5.17v-6.001l7.661-2.317v8.318h6.713v7.364zM252.418 188.214c0 6.415-5.581 9.504-11.942 9.504-5.941 0-10.337-2.493-12.477-7.072l6.651-3.74c.833 2.439 2.852 3.862 5.819 3.862 2.439 0 4.098-.833 4.098-2.554 0-4.335-15.322-1.958-15.322-12.417 0-6.055 5.169-9.443 11.285-9.443 4.809 0 8.969 2.195 11.285 6.3l-6.536 3.563c-.895-1.903-2.554-3.028-4.756-3.028-1.903 0-3.447.834-3.447 2.438 0 4.397 15.322 1.667 15.322 12.594zM287.358 167.188v41.578h-7.661v-15.384c-2.14 2.73-5.283 4.336-9.626 4.336-7.959 0-14.496-6.828-14.496-15.682s6.537-15.682 14.496-15.682c4.336 0 7.486 1.606 9.626 4.336v-3.502zm-7.661 14.848c0-4.992-3.502-8.373-8.196-8.373-4.695 0-8.258 3.387-8.258 8.373s3.502 8.372 8.258 8.372 8.196-3.386 8.196-8.372M321.635 167.188v29.704h-7.661v-3.326c-1.782 2.676-4.871 4.159-8.854 4.159-6.293 0-11.224-4.396-11.224-12.295v-18.235h7.661v17.287c0 4.037 2.438 6.117 5.88 6.117 3.739 0 6.537-2.195 6.537-7.363v-16.041h7.661zM358.675 167.188v29.703h-7.661v-3.502c-2.141 2.677-5.346 4.336-9.68 4.336-7.899 0-14.436-6.829-14.436-15.681 0-8.854 6.537-15.683 14.436-15.683 4.334 0 7.546 1.667 9.68 4.336v-3.502h7.661zm-7.661 14.848c0-4.992-3.503-8.372-8.258-8.372s-8.197 3.387-8.197 8.372c0 4.986 3.502 8.373 8.197 8.373s8.258-3.387 8.258-8.373M382.167 166.592v8.555c-3.983-.474-9.03 1.307-9.03 7.546v14.198h-7.661v-29.703h7.661v5.108c1.544-4.038 5.284-5.704 9.03-5.704M401.04 190.768c2.966 0 5.344-1.247 6.651-2.967l6.178 3.563c-2.791 4.037-7.248 6.354-12.952 6.354-9.978 0-16.277-6.828-16.277-15.682s6.354-15.682 15.681-15.682c8.793 0 15.032 6.95 15.032 15.682 0 1.132-.122 2.14-.298 3.15H392.66c1.07 3.922 4.335 5.582 8.372 5.582zm6.651-11.523c-.948-4.274-4.159-6.002-7.363-6.002-4.099 0-6.889 2.195-7.783 6.002z"/></g></g><defs><clipPath id="clip0_1_422"><path fill="#fff" d="M0 .47h420v213.77H0z"/></clipPath><clipPath id="clip1_1_422"><path fill="#fff" d="M0 .47h420v213.77H0z"/></clipPath></defs></svg>