<svg xmlns="http://www.w3.org/2000/svg" width="342" height="81" fill="none"><g clip-path="url('#clip0_1_1126')"><g clip-path="url('#clip1_1_1126')"><mask id="mask0_1_1126" width="342" height="81" x="0" y="0" maskUnits="userSpaceOnUse" style="mask-type:luminance"><path fill="#fff" d="M341.999.441H.001v79.777H342z"/></mask><g mask="url('#mask0_1_1126')"><path fill="#fff" d="M.547 3.098h7.802v20.438h3.826V3.099h12.177v53.78H12.176V34.5H8.349v22.378H.547zM71.086 29.954c0 17.321-5.979 28.193-23.38 28.193-15.817 0-21.724-10.684-21.724-28.315 0-16.547 5.907-27.459 22.464-27.459s22.64 11.108 22.64 27.585zm-28.6-.225c0 12.401.729 15.99 4.308 15.99 3.58 0 4.738-3.449 4.738-16.123 0-11.74-1.117-14.76-4.779-14.76-3.355 0-4.27 2.938-4.27 14.89zM84.317 17.054h-13.71V3.102h51.487v13.952h-15.511v39.828H84.317zM145.078 40.383c.534 2.266 1.902 4.846 6.008 4.846 3.12 0 4.794-1.25 4.794-3.13s-.534-3.364-9.282-5.004c-20.996-3.91-23.05-11.804-23.05-18.84 0-10.16 8.822-17.821 26.705-17.821 16.354 0 27.665 6.021 28.502 17.037h-22.494c-.456-2.348-1.674-4.142-5.25-4.142-2.586 0-3.879 1.017-3.879 2.583 0 1.876 2.284 2.812 8.221 3.91 19.628 3.52 24.875 10.396 24.875 19.075 0 11.963-10.803 19.385-28.682 19.385-19.475 0-28.809-7.816-30.405-17.9h23.94zM201.298 48.203l-1.521 8.679h-21.739l15.141-53.78h30.154l13.53 53.78h-21.471l-1.636-8.68h-12.469.011m9.547-14.462c-.736-4.186-2.552-12.272-3.46-18.212h.265c-.915 6.176-2.316 12.843-3.325 18.212h6.528-.008M255.419 3.098v38.11c0 2.94 2.798 4.5 5.336 4.5 2.369 0 5.182-1.478 5.182-4.5V3.098h18.216v35.939c0 14.085-11.438 19.37-24.284 19.37s-24.553-5.723-24.553-19.484V3.098zM321.661 38.375v.593c0 10.396-3.262 19.444-16.038 19.444-11.509 0-18.974-6.457-18.974-26.324V28.62c0-20.483 9.225-26.87 19.326-26.87 12.517 0 15.686 9.936 15.686 19.083v.693h-14.577v-.881c0-4.659-.665-6.442-1.801-6.442-.926 0-2.395 1.883-2.395 13.945v3.895c0 12.696 1.267 14.406 2.373 14.406 1.218 0 1.887-1.979 1.887-7.138v-.936h14.516zM340.097 32.879h-6.633v13.757h8.535l-1.368 10.242h-16.818V3.098h16.744v10.241h-7.093v9.306h6.633v10.241zM126.761 76.657v-11.13h1.752v4.386c.553-.815 1.383-1.213 2.485-1.22q1.413 0 2.182.826.774.823.774 2.295v4.84h-1.753v-4.6q-.002-1.906-1.718-1.905c-.576 0-1.046.173-1.413.508q-.551.516-.553 1.445v4.547h-1.753l-.007.011zM142.238 75.704c-.777.766-1.76 1.15-2.937 1.15q-1.766 0-2.948-1.15c-.785-.767-1.177-1.747-1.177-2.93s.396-2.16 1.177-2.919c.784-.763 1.763-1.146 2.948-1.146 1.184 0 2.16.383 2.937 1.146q1.166 1.144 1.166 2.919c0 1.183-.389 2.163-1.166 2.93m-4.604-.98c.419.482.968.722 1.667.722s1.248-.24 1.666-.722q.628-.726.628-1.954c0-.818-.209-1.455-.631-1.935q-.635-.722-1.656-.722c-.68 0-1.248.236-1.666.711q-.628.713-.628 1.946c0 .822.209 1.47.628 1.954zM147.465 76.853q-2.421 0-2.421-2.558v-3.94h-1.219v-1.459h1.267l.408-2.289h1.319v2.289h3.135v1.46h-3.135v3.891q0 1.073.795 1.073c.501 0 .946-.447 1.346-1.346l1.363.686q-1.01 2.191-2.854 2.193z"/><path fill="#fff" d="M150.884 80.214c-.777 0-1.424-.21-1.931-.64l.65-1.365c.313.362.657.546 1.019.546q.734 0 .733-.928v-8.934h1.752v8.967q0 1.244-.628 1.801-.629.547-1.595.557v-.007zm1.345-12.63a1.07 1.07 0 0 1-.777-.287 1 1 0 0 1-.232-.339.9.9 0 0 1-.075-.401c0-.137.023-.277.075-.406.053-.125.135-.247.232-.339.213-.188.49-.298.777-.298s.565.103.778.298a.95.95 0 0 1 .313.745.9.9 0 0 1-.082.394c-.059.118-.134.24-.239.332a1.1 1.1 0 0 1-.355.224 1.2 1.2 0 0 1-.418.074zM157.46 76.853c-.9 0-1.625-.225-2.181-.663-.558-.443-.838-1.036-.838-1.788q.001-1.022.871-1.736.869-.711 2.182-.71c.874 0 1.655.28 2.276.847v-.944c0-.557-.146-.984-.43-1.29q-.428-.455-1.226-.456-1.608 0-1.995 1.613l-1.606-.338c.213-.83.642-1.49 1.281-1.968q.959-.724 2.388-.723 1.556 0 2.462.807.899.81.901 2.359v4.787h-1.708v-.98q-.862 1.168-2.369 1.168l-.008.011zm.326-1.283q1.166 0 1.98-1.15v-.239c-.538-.641-1.203-.962-1.98-.962-.453 0-.826.11-1.103.328a1 1 0 0 0-.313.372 1.04 1.04 0 0 0-.113.468 1.06 1.06 0 0 0 .419.856c.28.217.643.327 1.113.327l-.007.008zM163.241 76.658v-7.765h1.708v1.345c.437-.98 1.176-1.47 2.242-1.47.627 0 1.151.199 1.554.608q.616.608.616 1.632c0 .406-.074.815-.209 1.202l-1.607-.162q.05-.315.064-.642c0-.803-.336-1.2-1.005-1.2-.452 0-.837.235-1.143.71s-.464 1.098-.464 1.884v3.858h-1.756"/><path fill="#FF3C00" d="M115.813 70.086c1.307-.714 3.094-1.695 3.094-4.55h-2.167c0 1.595-.789 2.026-1.981 2.686-1.308.715-3.094 1.695-3.094 4.551h2.167c0-1.596.788-2.027 1.981-2.687M119.557 69.428c0 1.595-.789 2.027-1.981 2.687-1.307.714-3.094 1.694-3.094 4.551h2.167c0-1.596.789-2.027 1.981-2.687 1.308-.715 3.094-1.695 3.094-4.551z"/><path fill="#fff" d="M3.028 68.39h2.31l3.026 8.256H6.488l-.538-1.544H2.415l-.538 1.544H.001zm2.462 5.4-1.255-3.598h-.109L2.871 73.79zM11.757 72.517c0-2.664 1.532-4.234 3.957-4.234 1.83 0 3.299.922 3.467 2.97h-1.745c-.24-1.024-.92-1.451-1.782-1.451-1.457 0-2.07 1.19-2.07 2.712s.598 2.723 2.07 2.723c.86 0 1.543-.423 1.782-1.463h1.745c-.168 2.064-1.637 2.985-3.49 2.985-2.402 0-3.934-1.57-3.934-4.245zM19.917 72.517c0-2.535 1.577-4.234 3.995-4.234 2.417 0 3.994 1.699 3.994 4.234s-1.577 4.246-3.994 4.246-3.995-1.721-3.995-4.246m3.995 2.724c1.375 0 2.152-1.084 2.152-2.724s-.777-2.712-2.152-2.712-2.153 1.061-2.153 2.712.777 2.724 2.153 2.724M29.034 68.39H30.9l3.37 5.426h.038V68.39H36.1v8.255h-1.935l-3.3-5.318h-.037v5.318h-1.794zM37.539 68.39h5.534v1.534h-3.744v1.935h3.097v1.426H39.33v3.361h-1.794v-8.255zM43.932 68.39h5.713v1.534h-3.923v1.85h3.565v1.378h-3.565v1.957h4.043v1.533h-5.833v-8.255zM50.912 68.39h3.385c2.224 0 3.192 1.143 3.192 2.761 0 1.168-.516 2.112-1.674 2.525l1.756 2.97H55.8l-1.592-2.75h-1.506v2.75h-1.794v-8.255zm3.326 3.974c.979 0 1.412-.483 1.412-1.217 0-.733-.43-1.227-1.412-1.227h-1.532v2.44h1.532zM58.62 68.39h5.714v1.534H60.41v1.85h3.565v1.378H60.41v1.957h4.043v1.533h-5.832v-8.255zM65.604 68.39h1.865l3.37 5.426h.038V68.39h1.794v8.255h-1.937l-3.299-5.318h-.037v5.318h-1.794zM73.821 72.517c0-2.664 1.532-4.234 3.957-4.234 1.831 0 3.3.922 3.467 2.97h-1.744c-.24-1.024-.92-1.451-1.782-1.451-1.458 0-2.071 1.19-2.071 2.712s.598 2.723 2.07 2.723c.86 0 1.543-.423 1.783-1.463h1.744c-.167 2.064-1.636 2.985-3.49 2.985-2.402 0-3.934-1.57-3.934-4.245zM82.333 68.39h5.713v1.534h-3.923v1.85h3.564v1.378h-3.564v1.957h4.043v1.533h-5.833v-8.255zM92.343 68.39h3.397c1.864 0 2.713.815 2.713 2.065 0 .895-.42 1.404-1.207 1.65 1.244.332 1.782 1.099 1.782 2.123 0 1.334-.934 2.418-3.146 2.418h-3.539zm3.326 3.35c.538 0 .993-.283.993-.954 0-.67-.455-.906-.993-.906h-1.532v1.864h1.532zm.157 3.42c1.005 0 1.353-.53 1.353-1.13 0-.601-.348-1.169-1.353-1.169H94.14v2.3zM102.051 73.612l-3.027-5.221h2.033l1.913 3.516 1.925-3.516h2.032l-3.026 5.221v3.03h-1.854v-3.03z"/></g></g></g><defs><clipPath id="clip0_1_1126"><path fill="#fff" d="M0 .08h342v80.47H0z"/></clipPath><clipPath id="clip1_1_1126"><path fill="#fff" d="M.001.08h341.997v80.47H.001z"/></clipPath></defs></svg>