<svg xmlns="http://www.w3.org/2000/svg" width="348" height="349" fill="none"><g clip-path="url('#clip0_1_49')"><path fill="#323232" d="m162.603 347.998-5.145-.571-4.964-11.124-.131-.014-1.167 10.444-5.036-.556 2.08-18.605 5.355.593 4.819 10.762.109.015 1.131-10.098 5.036.557-2.079 18.605zM140.384 345.071l-12.973-3.021 1-4.272 8.037 1.872.674-2.891-7.254-1.692.899-3.83 7.254 1.684.696-2.971-8.305-1.93 1-4.272 13.24 3.08-4.261 18.229zM122.904 341.153l-4.871-1.9 1.972-11.637-.203-.08-7.015 9.671-4.82-1.879 1.421-11.847-.174-.065-6.494 9.873-4.84-1.886 11.283-15.699 4.892 1.908-1.341 12.743 7.682-10.271 4.87 1.901-2.362 19.176zM88.11 311.634l-.95 13.82-4.84-3.122.906-7.987-6.936 4.091-4.841-3.123 12.248-6.519 3.602-5.544 4.413 2.848-3.602 5.544zM75.406 306.604c-3.522 4.206-8.842 5.146-13.248 1.481-4.384-3.65-4.413-9.034-.898-13.248 3.5-4.185 8.863-5.168 13.247-1.518 4.406 3.664 4.406 9.093.899 13.285m-3.696-9.939c-2.102-1.749-4.537-.708-6.407 1.525-1.906 2.277-2.442 4.793-.34 6.542 2.116 1.763 4.508.788 6.413-1.489 1.87-2.241 2.457-4.814.334-6.578M51.49 298.32l-5.464-5.847c-3.638-3.896-3.058-7.394-.333-9.924 1.862-1.735 4.189-2.537 6.674-1.489l2.145-6.96 3.421 3.657-2.022 6.151 1.696 1.821 4.16-3.867 3.457 3.701zm1-11.637c-1.188-1.272-2.333-1.12-3.21-.303s-1.116 1.944.072 3.216l1.9 2.039 3.137-2.913zM37.525 282.947l-2.964-4.099 6.414-4.618-10.146-.55-3.479-4.813 10.711.773 4.073-12.331 3.392 4.684-2.732 7.965 3.761.26 3.24-2.327 2.964 4.098-15.22 10.95zM29.213 253.753c-5.305 2.566-10.132 1.156-12.625-3.968-1.87-3.846-1.464-7.973 3.11-10.452l2.166 4.452c-1.826 1.388-1.92 2.921-1.26 4.265 1.289 2.645 4.014 2.125 6.326 1.005 2.319-1.121 4.471-2.877 3.145-5.595-.652-1.344-1.913-2.226-4.167-1.641l-2.167-4.452c4.783-2.045 8.305.174 10.204 4.069 2.471 5.074.594 9.729-4.74 12.31zM11.631 237.909l-1.783-4.734 17.575-6.585 1.782 4.734zM11.341 223.439l1.42 4.965-4.304 1.229-4.232-14.781 4.304-1.229 1.42 4.966 13.741-3.918 1.392 4.857-13.74 3.918zM14.204 202.391l-10.95 8.515-.9-5.682 6.567-4.662-7.682-2.421-.899-5.681 13.045 4.749 6.544-1.027.819 5.175-6.544 1.027zM11.334 172.792c-1.37-.043-2.486-1.228-2.442-2.616.043-1.366 1.232-2.479 2.594-2.436 1.392.043 2.508 1.229 2.471 2.595-.043 1.388-1.232 2.508-2.623 2.457M1.731 146.671l.61-2.935 15.95-6.064.015-.08-14.103-2.891.565-2.725 18.386 3.773-.63 3.036-15.806 6.014v.05l13.958 2.87-.566 2.725-18.386-3.773zM15.03 129.627c-5.74-1.951-7.957-6.491-6.32-11.276 1.624-4.756 6.16-7.003 11.9-5.059s7.98 6.498 6.356 11.254c-1.63 4.785-6.189 7.025-11.929 5.074zm9.646-5.847c1.109-3.238-.573-6.296-4.986-7.799s-7.588-.094-8.697 3.151c-1.116 3.267.537 6.31 4.95 7.814 4.414 1.503 7.617.101 8.726-3.166zM12.972 107.22l1.268-2.623 16.792 1.64.072-.144-11.776-12.05 1.268-2.623 13.864 14.449-1.508 3.129-19.973-1.763zM22.995 87.387l6.479-10.314 2.065 1.293-4.993 7.958 4.768 2.978 4.566-7.271 1.884 1.178-4.565 7.272 5.109 3.194 5.138-8.182 2.066 1.294-6.617 10.538-15.908-9.938zM32.401 72.627l2.16-2.66 15.654 4.605-7.755-14.326 2.16-2.66 14.581 11.796-1.754 2.161-10.704-8.659-.065.08 7.11 13.082-1.384 1.706-14.32-4.214-.052.065 10.704 8.66-1.753 2.16L32.4 72.635zM49.048 53.12l5.196-4.916c2.9-2.74 5.494-2.617 7.356-.658 1.363 1.439 1.587 3.029.79 4.597 2.232-1.192 4.37-.961 6.124.882 2.138 2.248 2.167 5.428-1.232 8.652L61.97 66.7 49.055 53.12zm10.284.707c1.442-1.358 1.63-2.797.427-4.054-1.16-1.222-2.587-1.092-4.029.274l-3.037 2.87 3.595 3.78 3.037-2.87zm6.189 6.238c2.043-1.93 2.014-3.787.725-5.146-1.29-1.359-3.11-1.446-5.153.491l-3.174 3 4.428 4.655zM63.209 40.196l9.675-7.41 1.486 1.93-7.465 5.718 3.428 4.452 6.827-5.225 1.355 1.763-6.827 5.226 3.674 4.77 7.675-5.876 1.486 1.93-9.893 7.568-11.428-14.846zM77.044 29.91l6.03-3.7c3.906-2.393 7-1.562 8.899 1.51 1.45 2.35 1.384 4.8-.609 6.874l7.457 3.932-2.377 1.46-7.073-3.759-3.747 2.299 3.624 5.876-2.377 1.46-9.834-15.945zm10.87 4.351c2.305-1.416 2.776-3.209 1.638-5.052-1.167-1.894-2.978-2.284-5.29-.867l-3.566 2.183 3.653 5.92zM108.772 24.323c1.833-2.544 3.268-4.228 2.362-6.375-.804-1.959-2.616-2.32-4.392-1.569-1.826.774-2.811 2.436-1.826 4.75l.145.346-2.42 1.026-.196-.47c-1.305-3.078-.384-6.172 3.421-7.777 3.601-1.525 6.5-.34 7.71 2.523 1.319 3.1-.442 5.471-2.246 7.864-1.95 2.682-2.79 4.46-2.073 6.158l.051.123 8.762-3.708.891 2.096-11.603 4.908-.304-.716c-1.312-3.079-.978-5.515 1.718-9.18M118.345 20.593l7.276-2.414.652 1.952-7.276 2.414zM129.368 19.444l2.478-.593c.653 2.595 2.667 3.513 5.066 2.942 2.167-.52 3.769-2.11 3.232-4.344-.478-1.973-2.275-2.92-5.116-2.24l-.884.21-.479-1.974.754-.18c2.95-.71 3.29-2.379 2.979-3.658-.428-1.771-1.993-2.436-3.921-1.973-1.877.448-3.261 1.8-2.616 4.503l-2.479.592c-.935-3.874.812-6.469 4.595-7.372 3.653-.875 6.225.542 6.878 3.252.507 2.104-.45 3.846-2.059 4.727 1.754-.144 4.327.673 5.037 3.636.776 3.224-1.341 6.122-5.486 7.112-4.377 1.048-7.102-.968-7.979-4.633zM160.574 12.96c-.087-1.358.986-2.58 2.377-2.674 1.363-.087 2.587.983 2.682 2.342.087 1.388-.986 2.61-2.348 2.696-1.392.087-2.617-.983-2.711-2.37zM185.664.998l5.138.593 4.921 11.145.13.015 1.203-10.445 5.037.579-2.145 18.597-5.356-.614-4.776-10.777-.108-.014-1.167 10.097-5.037-.578L185.649.998zM207.862 3.998l12.972 3.065-1.015 4.271-8.037-1.9-.688 2.89 7.254 1.713-.906 3.824-7.254-1.713-.703 2.964 8.298 1.958-1.015 4.272-13.233-3.13 4.334-18.221zM225.313 7.98l4.863 1.916-2.015 11.63.196.08 7.051-9.643 4.812 1.894-1.464 11.846.174.073 6.523-9.852 4.841 1.908-11.335 15.656-4.884-1.923 1.384-12.735-7.718 10.242-4.863-1.916 2.435-19.168zM260.019 37.637l1-13.813 4.827 3.144-.935 7.98 6.95-4.062 4.827 3.144-12.27 6.476-3.616 5.53-4.399-2.863 3.616-5.529zM272.68 42.696c3.537-4.2 8.863-5.117 13.255-1.43 4.37 3.664 4.385 9.056.848 13.255-3.522 4.178-8.878 5.132-13.255 1.468-4.392-3.68-4.37-9.115-.855-13.293zm3.667 9.953c2.094 1.757 4.537.73 6.414-1.503 1.913-2.27 2.457-4.785.362-6.541-2.116-1.771-4.508-.803-6.421 1.467-1.877 2.233-2.471 4.806-.362 6.577zM296.596 51.08l5.442 5.877c3.624 3.91 3.029 7.409.29 9.931-1.87 1.728-4.196 2.523-6.682 1.46l-2.174 6.954-3.406-3.672 2.044-6.144-1.696-1.829-4.175 3.853-3.442-3.715 13.784-12.714zm-1.044 11.638c1.181 1.28 2.326 1.135 3.218.318.884-.817 1.123-1.944-.066-3.224l-1.891-2.045-3.153 2.905zM310.496 66.513l2.949 4.112-6.435 4.59 10.146.585 3.464 4.829-10.704-.81-4.124 12.317-3.37-4.698 2.769-7.959-3.762-.274-3.246 2.32-2.95-4.113 15.27-10.9zM318.685 95.714c5.312-2.552 10.139-1.12 12.61 4.011 1.855 3.853 1.435 7.972-3.145 10.437l-2.146-4.459c1.834-1.381 1.928-2.913 1.276-4.265-1.276-2.653-4.008-2.14-6.327-1.034s-4.479 2.863-3.167 5.588c.652 1.351 1.906 2.226 4.16 1.655l2.145 4.46c-4.79 2.031-8.305-.203-10.189-4.106-2.45-5.088-.558-9.729 4.783-12.295zM336.223 111.666l1.761 4.734-17.596 6.512-1.761-4.734zM336.455 126.107l-1.406-4.966 4.312-1.207 4.181 14.803-4.312 1.207-1.398-4.965-13.755 3.859-1.377-4.864 13.755-3.86zM333.52 147.155l10.986-8.471.877 5.681-6.587 4.633 7.674 2.45.877 5.681-13.03-4.799-6.544 1.005-.798-5.183 6.545-1.004zM336.266 176.717c1.37.044 2.486 1.229 2.443 2.617-.044 1.366-1.232 2.479-2.595 2.436-1.391-.044-2.507-1.229-2.471-2.595.043-1.388 1.232-2.501 2.623-2.458M345.789 202.911l-.616 2.935-15.973 6.014-.014.079 14.096 2.942-.573 2.725-18.371-3.838.637-3.036 15.828-5.963.015-.051-13.966-2.913.573-2.724 18.379 3.838zM332.418 219.897c5.733 1.966 7.929 6.512 6.283 11.29-1.637 4.756-6.181 6.982-11.914 5.016s-7.957-6.519-6.312-11.275c1.652-4.778 6.218-6.997 11.943-5.031m-9.66 5.811c-1.116 3.238.551 6.296 4.957 7.814s7.588.115 8.704-3.115c1.123-3.26-.515-6.318-4.928-7.828-4.414-1.518-7.61-.123-8.74 3.137zM334.389 242.347l-1.275 2.624-16.785-1.706-.072.145 11.726 12.099-1.276 2.624-13.805-14.499 1.521-3.13 19.966 1.85zM324.287 262.13l-6.515 10.285-2.058-1.301 5.022-7.936-4.762-3-4.594 7.257-1.885-1.185 4.595-7.257-5.102-3.216-5.167 8.16-2.065-1.301 6.66-10.509 15.864 9.996zM314.829 276.846l-2.174 2.653-15.639-4.669 7.696 14.354-2.174 2.653-14.53-11.847 1.768-2.154 10.668 8.696.065-.087-7.059-13.104 1.392-1.699 14.298 4.265.051-.065-10.668-8.696 1.761-2.154 14.531 11.847zM298.11 296.297l-5.21 4.893c-2.907 2.732-5.501 2.595-7.364.629-1.362-1.439-1.579-3.036-.775-4.604-2.232 1.178-4.37.946-6.117-.904-2.13-2.255-2.152-5.435 1.269-8.645l5.326-5.009 12.871 13.625zm-16.444-6.997c-2.05 1.923-2.029 3.78-.739 5.146s3.109 1.453 5.153-.47l3.181-2.985-4.413-4.669-3.182 2.985zm6.168 6.259c-1.442 1.359-1.638 2.79-.442 4.055 1.159 1.229 2.587 1.099 4.029-.26l3.044-2.862-3.587-3.795zM283.906 309.177l-9.711 7.372-1.479-1.937 7.487-5.688-3.414-4.467-6.848 5.204-1.348-1.763 6.848-5.205-3.652-4.784-7.704 5.847-1.478-1.937 9.921-7.532 11.371 14.897zM270.02 319.404l-6.044 3.672c-3.913 2.378-7.008 1.533-8.892-1.547-1.435-2.349-1.37-4.806.638-6.866l-7.443-3.961 2.384-1.446 7.059 3.788 3.754-2.284-3.602-5.891 2.377-1.446zm-10.849-4.394c-2.311 1.409-2.783 3.195-1.659 5.045 1.159 1.894 2.971 2.291 5.283.889l3.573-2.168-3.631-5.935-3.573 2.169zM238.292 324.861c-1.841 2.538-3.29 4.222-2.384 6.361.797 1.959 2.609 2.327 4.392 1.583 1.833-.766 2.819-2.429 1.84-4.749l-.144-.347 2.42-1.012.196.47c1.297 3.087.355 6.173-3.45 7.77-3.609 1.511-6.501.311-7.704-2.551-1.304-3.108.464-5.472 2.276-7.857 1.957-2.674 2.812-4.452 2.094-6.158l-.05-.123-8.784 3.672-.884-2.096 11.624-4.865.305.716c1.297 3.086.956 5.515-1.754 9.172zM228.712 328.562l-7.284 2.393-.645-1.959 7.284-2.393zM217.674 329.668l-2.478.586c-.645-2.595-2.653-3.528-5.052-2.964-2.166.513-3.775 2.096-3.246 4.337.464 1.98 2.261 2.927 5.109 2.262l.884-.209.464 1.98-.754.181c-2.949.694-3.297 2.371-2.993 3.643.421 1.771 1.986 2.443 3.914 1.987 1.877-.44 3.268-1.785 2.63-4.495l2.479-.586c.92 3.882-.841 6.462-4.624 7.351-3.652.86-6.225-.571-6.863-3.274-.5-2.111.471-3.846 2.08-4.72-1.761.137-4.319-.687-5.022-3.65-.761-3.224 1.362-6.115 5.515-7.091 4.384-1.033 7.095.998 7.964 4.662zM186.425 336.036c.087 1.359-1 2.58-2.392 2.667-1.362.087-2.587-.997-2.667-2.356-.087-1.388 1-2.61 2.363-2.689 1.391-.087 2.616.99 2.696 2.378"/><path fill="#FF3C00" d="M155.827 154.564c20.626-11.435 48.889-27.091 48.889-72.67h-34.213c0 25.5-12.451 32.395-31.286 42.84-20.626 11.434-48.89 27.09-48.89 72.67h34.214c0-25.501 12.444-32.396 31.286-42.84M215.044 144.09c0 25.501-12.444 32.396-31.286 42.84-20.626 11.435-48.889 27.091-48.889 72.67h34.213c0-25.5 12.451-32.395 31.293-42.84 20.626-11.434 48.89-27.09 48.89-72.67h-34.221"/></g><defs><clipPath id="clip0_1_49"><path fill="#fff" d="M.34.05h347v348H.34z"/></clipPath></defs></svg>