<svg xmlns="http://www.w3.org/2000/svg" width="340" height="106" fill="none"><g clip-path="url('#clip0_1_501')"><g clip-path="url('#clip1_1_501')"><path fill="#000" d="M232.433 47.844c0-5.364-3.275-9.253-9.552-9.253h-20.284v27.797h6.67V56.9h7.892l7.736 9.49h7.515v-.614l-7.515-9.035c4.689-.973 7.538-4.439 7.538-8.896m-10.3 3.438h-12.866v-6.934h12.866c2.379 0 3.909 1.275 3.909 3.477 0 2.2-1.476 3.457-3.909 3.457M333.182 38.59h-6.235v10.54h-16.81V38.59h-6.749v27.798h6.749V55.442h16.81v10.946h6.235zM184.743 38.59l-7.417 23.39h-.407l-7.46-23.39h-11.877v27.798h6.352V43.554h.397l7.417 22.834h10.234l7.459-22.834h.393v22.834h6.552V38.591zM112.16 49.965c-2.356-.247-6.751-.651-9.108-.896-2.357-.244-3.66-.931-3.66-2.473s1.423-2.726 7.164-2.726c5.066 0 9.742 1.09 13.822 3.072V40.72c-4.082-1.956-8.564-2.915-14.166-2.915-7.857 0-13.298 3.306-13.298 8.895 0 4.733 3.193 7.316 9.597 8.02 2.319.255 6.26.604 9.01.832 2.996.25 3.886 1.17 3.886 2.545 0 1.885-2.1 3.056-7.419 3.056-5.321 0-10.898-1.78-14.798-4.273v6.4c3.132 2.108 8.557 3.897 14.598 3.897 8.584 0 14.093-3.33 14.093-9.294 0-4.488-2.939-7.212-9.721-7.92zM126.248 38.59v27.798h25.768v-5.68H132.6v-5.64h19.086v-5.636H132.6V44.27h19.416V38.59zM289.604 49.965c-2.358-.247-6.752-.651-9.109-.896-2.319-.239-3.66-.931-3.66-2.473s1.423-2.726 7.164-2.726c5.066 0 9.743 1.09 13.823 3.072V40.72c-4.083-1.956-8.565-2.915-14.167-2.915-7.857 0-13.298 3.306-13.298 8.895 0 4.733 3.193 7.316 9.597 8.02 2.319.255 6.261.604 9.01.832 2.996.25 3.887 1.17 3.887 2.545 0 1.885-2.1 3.056-7.421 3.056s-10.897-1.78-14.797-4.273v6.4c3.133 2.108 8.557 3.897 14.598 3.897 8.584 0 14.093-3.33 14.093-9.294 0-4.488-2.939-7.212-9.72-7.92zM259.148 38.59v14.23c0 5.393-3.255 8.352-8.149 8.352s-8.15-2.915-8.15-8.434V38.591h-6.631v13.515c0 10.094 6.268 15.077 14.876 15.077s14.681-4.788 14.681-14.747V38.59h-6.632z"/><path fill="#EE7326" d="M70.062 52.327c0 1.355-.674 1.564-2.384 1.564-1.814 0-2.125-.313-2.332-1.668-.364-3.493-2.696-6.466-6.632-6.777-1.242-.104-1.554-.574-1.554-2.138 0-1.46.208-2.138 1.347-2.138 6.839 0 11.555 5.526 11.555 11.157m9.95 0c0-10.481-7.05-21.534-23.319-21.534H24.348c-.653 0-1.057.343-1.057.942 0 .328.243.622.465.795 1.185.937 2.91 1.968 5.227 3.133 2.245 1.13 3.98 1.863 5.74 2.583.727.297 1.017.621 1.017 1.055 0 .566-.396.926-1.216.926H8.852c-.76 0-1.126.492-1.126.99 0 .423.148.761.506 1.135 2.084 2.187 5.396 4.825 10.239 7.873 4.244 2.671 9.488 5.554 13.647 7.56.7.338.942.729.926 1.133-.019.467-.385.862-1.193.862H20.085c-.67 0-1.04.355-1.04.9 0 .301.242.686.56.977 2.676 2.444 6.955 5.115 12.658 7.558 7.606 3.26 15.35 5.218 24.045 5.218 16.477 0 23.704-12.407 23.704-22.106m-21.505 14.86c-8.084 0-14.82-6.623-14.82-14.86s6.736-14.65 14.82-14.65 14.767 6.519 14.767 14.65-6.478 14.86-14.767 14.86"/></g></g><defs><clipPath id="clip0_1_501"><path fill="#fff" d="M0 .14h340v105.58H0z"/></clipPath><clipPath id="clip1_1_501"><path fill="#fff" d="M0 .14h340v105.58H0z"/></clipPath></defs></svg>