<svg xmlns="http://www.w3.org/2000/svg" width="789" height="249" fill="none"><path fill="#212529" d="M57.262 7.468h9.692V32.3q-.018 3.537-1.786 6.226-1.752 2.67-4.846 4.173-3.078 1.486-7.093 1.486-3.484 0-6.367-1.203a10.1 10.1 0 0 1-4.598-3.82q-1.716-2.618-1.698-6.791H50.4q.052 1.362.46 2.299.424.937 1.167 1.415.76.46 1.84.46 1.095 0 1.839-.478.76-.477 1.15-1.415.388-.954.406-2.352zm49.442 18.111q0 6.049-2.352 10.205-2.352 4.14-6.35 6.279-3.996 2.122-8.914 2.122-4.951 0-8.949-2.14-3.979-2.157-6.332-6.296-2.334-4.157-2.334-10.17 0-6.048 2.334-10.187 2.354-4.157 6.332-6.279 3.997-2.14 8.95-2.14 4.916 0 8.913 2.14 3.998 2.122 6.35 6.279 2.352 4.139 2.352 10.187m-10.117 0q0-3.254-.866-5.483-.85-2.246-2.53-3.395-1.661-1.168-4.103-1.168-2.44 0-4.12 1.168-1.663 1.15-2.53 3.395-.849 2.23-.849 5.483 0 3.255.85 5.5.865 2.229 2.529 3.396 1.68 1.15 4.12 1.15t4.104-1.15q1.68-1.167 2.529-3.395.867-2.247.866-5.5m24.5-18.11v36.22h-9.833V7.47zm36.001 0v36.22h-8.207l-13.087-19.03h-.213v19.03h-9.833V7.47h8.348l12.875 18.96h.283V7.468zm36.009 0h9.834v23.204q0 4.139-1.981 7.163-1.963 3.006-5.483 4.651-3.52 1.627-8.171 1.627-4.687 0-8.206-1.627-3.52-1.645-5.483-4.651-1.946-3.025-1.946-7.163V7.468h9.834v22.356q0 1.68.743 3.006a5.36 5.36 0 0 0 2.051 2.052q1.327.743 3.007.743 1.698 0 3.007-.743a5.36 5.36 0 0 0 2.051-2.051q.744-1.327.743-3.007zm34.033 11.319q-.141-1.77-1.326-2.76-1.168-.99-3.555-.99-1.522 0-2.494.371-.955.354-1.415.973a2.4 2.4 0 0 0-.477 1.415q-.035.654.229 1.185.284.513.885.938.602.406 1.538.742.937.336 2.229.602l2.971.636q3.007.637 5.147 1.68 2.14 1.044 3.502 2.459a8.8 8.8 0 0 1 1.998 3.148q.656 1.751.672 3.82-.017 3.573-1.786 6.05-1.769 2.475-5.058 3.766-3.272 1.291-7.871 1.291-4.722 0-8.241-1.397-3.502-1.397-5.448-4.298-1.927-2.918-1.945-7.463h9.338q.088 1.663.831 2.794.743 1.133 2.087 1.716 1.362.583 3.237.583 1.574 0 2.635-.389t1.61-1.078a2.55 2.55 0 0 0 .566-1.575 2.24 2.24 0 0 0-.549-1.45q-.513-.636-1.698-1.132-1.184-.513-3.201-.955l-3.608-.778q-4.81-1.044-7.587-3.484-2.76-2.46-2.742-6.703-.017-3.45 1.84-6.031 1.875-2.601 5.182-4.05 3.326-1.45 7.623-1.45 4.386 0 7.587 1.467t4.935 4.139q1.75 2.653 1.768 6.208zm32.976 24.902h-10.611L261.45 7.468h13.442l11.956 36.222h-10.612l-7.923-26.247h-.283zm-1.981-14.29h19.951v7.357h-19.951zm26.649-14.008V7.468h31.482v7.924h-10.895V43.69h-9.692V15.392z"/><g clip-path="url('#clip0_1_136')"><g clip-path="url('#clip1_1_136')"><g clip-path="url('#clip2_1_136')"><mask id="mask0_1_136" width="709" height="174" x="40" y="59" maskUnits="userSpaceOnUse" style="mask-type:luminance"><path fill="#fff" d="M748.636 59.21H40.023v172.875h708.613z"/></mask><g mask="url('#mask0_1_136')"><path fill="#323232" d="M41.154 64.969h16.165v44.29h7.928v-44.29H90.48V181.51H65.247v-48.492H57.32v48.492H41.154zM187.31 123.163c0 37.535-12.388 61.094-48.443 61.094-32.772 0-45.012-23.152-45.012-61.357 0-35.858 12.24-59.505 46.545-59.505s46.91 24.07 46.91 59.776zm-59.258-.487c0 26.873 1.509 34.652 8.926 34.652s9.817-7.476 9.817-34.939c0-25.444-2.314-31.985-9.902-31.985-6.953 0-8.849 6.365-8.849 32.264zM214.725 95.212h-28.406V64.977h106.678v30.235H260.86v86.305h-46.135zM340.619 145.764c1.107 4.911 3.94 10.502 12.45 10.502 6.464 0 9.932-2.708 9.932-6.781s-1.106-7.291-19.231-10.845c-43.503-8.473-47.761-25.579-47.761-40.825 0-22.017 18.279-38.62 55.333-38.62 33.887 0 57.323 13.05 59.057 36.92h-46.608c-.945-5.088-3.468-8.977-10.877-8.977-5.359 0-8.037 2.204-8.037 5.598 0 4.065 4.731 6.094 17.033 8.473 40.669 7.627 51.539 22.529 51.539 41.336 0 25.923-22.382 42.007-59.429 42.007-40.351 0-59.691-16.938-62.997-38.788h49.604zM457.107 162.71l-3.151 18.807h-45.044l31.372-116.54h62.478l28.034 116.54H486.31l-3.391-18.807h-25.836.024m19.781-31.337c-1.525-9.072-5.288-26.594-7.17-39.467h.551c-1.898 13.384-4.801 27.831-6.891 39.467h13.526-.016M569.243 64.969v82.584c0 6.373 5.799 9.751 11.057 9.751 4.908 0 10.738-3.203 10.738-9.751V64.969h37.743v77.88c0 30.523-23.699 41.974-50.316 41.974s-50.874-12.402-50.874-42.222V64.969zM706.496 141.411v1.286c0 22.529-6.759 42.135-33.229 42.135-23.846 0-39.315-13.992-39.315-57.045v-7.515c0-44.386 19.116-58.226 40.043-58.226 25.935 0 32.501 21.53 32.501 41.352v1.501h-30.202v-1.909c0-10.094-1.378-13.96-3.732-13.96-1.92 0-4.962 4.082-4.962 30.22v8.441c0 27.513 2.624 31.217 4.916 31.217 2.524 0 3.909-4.288 3.909-15.468v-2.029h30.079zM744.695 129.504h-13.741v29.812h17.682l-2.833 22.194h-34.847V64.969h34.692v22.193h-14.694v20.165h13.741v22.193zM302.667 224.37v-24.117h3.631v9.503c1.146-1.765 2.865-2.628 5.149-2.643 1.95 0 3.46.599 4.521 1.789 1.068 1.189 1.602 2.85 1.602 4.974v10.487h-3.63v-9.967c0-2.755-1.193-4.129-3.562-4.129-1.192 0-2.168.375-2.926 1.102-.759.743-1.146 1.789-1.146 3.13v9.855h-3.631l-.015.024zM334.735 222.302c-1.61 1.661-3.646 2.492-6.085 2.492q-3.658 0-6.109-2.492c-1.626-1.661-2.438-3.785-2.438-6.349s.82-4.68 2.438-6.325c1.626-1.653 3.654-2.483 6.109-2.483s4.475.83 6.085 2.483q2.415 2.48 2.416 6.325c0 2.564-.806 4.688-2.416 6.349m-9.538-2.124c.867 1.046 2.005 1.565 3.453 1.565s2.585-.519 3.453-1.565 1.3-2.46 1.3-4.233-.433-3.155-1.308-4.193c-.875-1.046-2.021-1.565-3.43-1.565-1.408 0-2.586.511-3.453 1.541q-1.3 1.546-1.301 4.217c0 1.781.434 3.187 1.301 4.233zM345.567 224.794q-5.018.002-5.018-5.542v-8.538h-2.524v-3.162h2.625l.844-4.959h2.733v4.959h6.496v3.162h-6.496v8.433q0 2.325 1.648 2.325c1.039 0 1.959-.966 2.788-2.915l2.826 1.485c-1.393 3.163-3.368 4.752-5.915 4.752z"/><path fill="#323232" d="M352.65 232.077c-1.611 0-2.95-.455-4.003-1.39l1.348-2.954c.65.782 1.362 1.182 2.113 1.182 1.015 0 1.518-.671 1.518-2.013v-19.358h3.631v19.43q0 2.696-1.301 3.905c-.867.791-1.974 1.19-3.306 1.206v-.016zm2.787-27.368a2.16 2.16 0 0 1-1.61-.623 2.1 2.1 0 0 1-.48-.735 2.1 2.1 0 0 1-.155-.871c0-.295.047-.599.155-.878.108-.271.279-.535.48-.735a2.39 2.39 0 0 1 1.61-.647c.596 0 1.17.224 1.611.647a2.145 2.145 0 0 1 .65 1.613c0 .297-.047.599-.171.855-.123.255-.278.519-.495.719a2.3 2.3 0 0 1-.735.487 2.3 2.3 0 0 1-.867.159zM366.276 224.794c-1.865 0-3.367-.488-4.521-1.438-1.154-.958-1.735-2.244-1.735-3.873 0-1.477.605-2.731 1.804-3.761s2.71-1.542 4.522-1.542c1.811 0 3.43.607 4.715 1.837v-2.045c0-1.206-.302-2.132-.891-2.795-.588-.655-1.439-.99-2.539-.99q-3.333 0-4.134 3.499l-3.329-.736c.441-1.797 1.331-3.226 2.655-4.264 1.324-1.046 2.973-1.565 4.948-1.565 2.152 0 3.847.582 5.102 1.749 1.238 1.165 1.866 2.875 1.866 5.111v10.373h-3.538v-2.124c-1.193 1.685-2.826 2.531-4.909 2.531l-.016.024zm.674-2.78q2.418 0 4.104-2.491v-.519c-1.116-1.389-2.493-2.084-4.104-2.084-.937 0-1.711.239-2.284.71a2.2 2.2 0 0 0-.651.807 2.3 2.3 0 0 0-.232 1.014c0 .343.062.71.217 1.031.147.319.372.606.65.822.581.471 1.332.71 2.308.71l-.016.017zM378.253 224.37v-16.826h3.538v2.915c.907-2.125 2.439-3.187 4.646-3.187 1.301 0 2.384.431 3.22 1.318.853.878 1.278 2.06 1.278 3.538a8.3 8.3 0 0 1-.434 2.603l-3.329-.352c.07-.455.109-.918.132-1.388 0-1.742-.697-2.604-2.083-2.604-.937 0-1.734.511-2.368 1.541-.635 1.03-.961 2.38-.961 4.081v8.361h-3.639"/><path fill="#FF3C00" d="M279.983 210.131c2.71-1.549 6.41-3.674 6.41-9.862h-4.49c0 3.458-1.634 4.392-4.104 5.821-2.709 1.55-6.41 3.674-6.41 9.864h4.49c0-3.459 1.634-4.393 4.104-5.823M287.74 208.702c0 3.458-1.634 4.392-4.103 5.821-2.71 1.55-6.41 3.674-6.41 9.864h4.49c0-3.459 1.634-4.393 4.104-5.822 2.709-1.549 6.41-3.674 6.41-9.863z"/><path fill="#323232" d="M46.295 206.457h4.784l6.271 17.889h-3.886L52.349 221h-7.324l-1.115 3.346h-3.887zm5.102 11.7-2.602-7.794h-.224l-2.602 7.794zM64.38 215.402c0-5.774 3.174-9.176 8.2-9.176 3.793 0 6.835 1.997 7.184 6.437h-3.616c-.495-2.22-1.904-3.147-3.693-3.147-3.02 0-4.289 2.58-4.289 5.878s1.239 5.901 4.29 5.901c1.78 0 3.197-.918 3.692-3.169h3.616c-.349 4.472-3.391 6.468-7.231 6.468-4.979 0-8.153-3.402-8.153-9.2zM81.289 215.402c0-5.494 3.267-9.176 8.276-9.176s8.276 3.682 8.276 9.176c0 5.495-3.267 9.2-8.276 9.2s-8.276-3.729-8.276-9.2m8.276 5.902c2.85 0 4.46-2.348 4.46-5.902s-1.61-5.877-4.46-5.877-4.46 2.299-4.46 5.877 1.611 5.902 4.46 5.902M100.18 206.457h3.863l6.983 11.756h.078v-11.756h3.716v17.889h-4.01l-6.837-11.523h-.077v11.523h-3.716zM117.801 206.457h11.466v3.323h-7.758v4.192h6.418v3.091h-6.418v7.283h-3.716v-17.889zM131.048 206.457h11.837v3.323h-8.129v4.009h7.386v2.987h-7.386v4.24h8.377v3.323h-12.085V206.45zM145.51 206.457h7.014c4.607 0 6.612 2.476 6.612 5.982 0 2.532-1.069 4.576-3.468 5.471l3.639 6.436h-3.67l-3.298-5.957h-3.121v5.957h-3.716v-17.889zm6.89 8.61c2.029 0 2.927-1.047 2.927-2.636s-.891-2.659-2.927-2.659h-3.174v5.287h3.174zM161.482 206.457h11.838v3.323h-8.13v4.009h7.386v2.987h-7.386v4.24h8.377v3.323h-12.085V206.45zM175.952 206.457h3.863l6.984 11.756h.077v-11.756h3.717v17.889h-4.012l-6.836-11.523h-.077v11.523h-3.716zM192.977 215.402c0-5.774 3.174-9.176 8.198-9.176 3.794 0 6.837 1.997 7.185 6.437h-3.615c-.495-2.22-1.905-3.147-3.694-3.147-3.019 0-4.288 2.58-4.288 5.878s1.238 5.901 4.288 5.901c1.781 0 3.199-.918 3.694-3.169h3.615c-.348 4.472-3.391 6.468-7.231 6.468-4.978 0-8.152-3.402-8.152-9.2zM210.614 206.457h11.837v3.323h-8.129v4.009h7.385v2.987h-7.385v4.24h8.376v3.323h-12.084V206.45zM231.354 206.457h7.038c3.863 0 5.62 1.766 5.62 4.473 0 1.941-.866 3.042-2.5 3.578 2.578.718 3.693 2.379 3.693 4.6 0 2.891-1.935 5.238-6.519 5.238h-7.332zm6.891 7.26c1.114 0 2.059-.615 2.059-2.068s-.945-1.965-2.059-1.965h-3.174v4.041h3.174zm.325 7.411c2.083 0 2.803-1.15 2.803-2.451s-.72-2.532-2.803-2.532h-3.491v4.983zM251.468 217.774l-6.27-11.317h4.211l3.964 7.62 3.988-7.62h4.211l-6.271 11.317v6.565h-3.84v-6.565z"/></g></g></g></g><defs><clipPath id="clip0_1_136"><path fill="#fff" d="M40 58.69h708.66v173.73H40z"/></clipPath><clipPath id="clip1_1_136"><path fill="#fff" d="M40 58.69h708.66v173.73H40z"/></clipPath><clipPath id="clip2_1_136"><path fill="#fff" d="M40.023 58.69h708.613v173.73H40.023z"/></clipPath></defs></svg>