<svg xmlns="http://www.w3.org/2000/svg" width="340" height="105" fill="none"><g fill="#03F" clip-path="url('#clip0_1_441')"><path d="M310.301 66.018c4.362 0 8.781-1.473 12.01-4.022.057-.057.057-.113 0-.113l-3.172-3.853c-.057-.056-.113-.056-.113 0-2.663 1.87-5.552 2.833-8.611 2.833-4.59 0-7.366-2.153-8.046-6.175l-.056-.453h20.678v-1.417c0-7.591-6.119-13.823-13.596-13.88h-.171c-4.079 0-7.704 1.36-10.253 3.91-2.437 2.436-3.796 5.891-3.796 9.63.057 8.215 5.948 13.54 15.126 13.54m-7.421-17.165c.963-3.003 3.228-4.646 6.344-4.646s5.326 1.643 6.346 4.646a.8.8 0 0 1-.114.793c-.169.226-.453.396-.736.396h-10.934c-.283 0-.566-.17-.737-.396a.7.7 0 0 1-.169-.793M268.605 52.59c0 7.705 6.232 13.54 14.56 13.54 4.079 0 7.817-1.416 10.537-4.022v-.17l-3.853-4.192c-1.472 1.87-3.795 3.003-6.231 3.003a7.9 7.9 0 0 1-3.569-.85c-.057 0-.114-.057-.171-.114l-.056-.056-.113-.057c-1.587-.793-2.89-2.21-3.57-3.909a8 8 0 0 1-.396-1.246c-.057-.227-.113-.397-.113-.567l-.057-.283c0-.113-.056-.283-.056-.396v-1.417c.113-.906.34-1.87.736-2.72.057-.112.113-.282.17-.396.736-1.473 1.87-2.549 3.23-3.285 1.189-.68 2.549-1.02 3.965-1.02 2.436 0 4.702 1.076 6.288 3.002l3.852-4.305c-2.718-2.606-6.514-4.08-10.65-4.08-8.271 0-14.503 5.836-14.503 13.54M264.753 64.885v-13.2c-.227-6.005-1.87-11.557-11.897-11.557-2.096 0-3.965.283-5.552.906l-.567.227v-1.02c0-.056-.057-.056-.057-.056h-5.608c-.056 0-.056.056-.056.056v24.644c0 .057.056.113.113.113h6.458c.057 0 .113-.056.113-.113v-13.88c0-.793.113-1.53.284-2.21.736-1.925 2.719-3.285 4.928-3.342 2.153 0 4.192 1.36 4.929 3.286.227.68.283 1.417.283 2.21v13.88c0 .056.057.113.114.113zc0 .057-.057.113 0 0M211.67 40.241v13.257c.225 6.005 1.869 11.557 11.896 11.557 10.198 0 11.671-6.798 11.898-11.84V40.24c0-.056-.058-.113-.114-.113h-6.458c-.057 0-.114.057-.114.113v13.88c0 .793-.113 1.53-.283 2.21-.737 1.926-2.719 3.285-4.929 3.342-2.152 0-4.192-1.36-4.928-3.286-.227-.68-.284-1.416-.284-2.21V40.242c0-.056-.056-.113-.113-.113h-6.459c-.056 0-.112.057-.112.113M192.917 38.939c-8.272 0-14.56 5.835-14.56 13.54s6.232 13.54 14.56 13.54 14.617-5.836 14.617-13.54c0-7.762-6.29-13.54-14.617-13.54m0 21.47c-4.305 0-7.592-3.398-7.592-7.93 0-4.476 3.343-7.932 7.592-7.932 4.306 0 7.648 3.513 7.648 7.931 0 4.42-3.399 7.932-7.648 7.932M163.174 65.565c6.855 0 12.067-5.666 12.067-13.144 0-7.421-5.268-13.257-12.067-13.257-3.625 0-6.911 1.474-9.234 4.193l-.737.793V27.608c0-.057-.056-.114-.113-.114h-6.458c-.057 0-.113.057-.113.114v37.277c0 .056.056.113.113.113h6.062c.057 0 .113-.056.113-.113v-4.646l.736.85c2.323 2.89 5.723 4.476 9.631 4.476m-1.416-20.735c4.306 0 7.479 3.172 7.479 7.535 0 4.305-3.23 7.534-7.479 7.534-4.248 0-7.591-3.285-7.591-7.478 0-4.305 3.286-7.591 7.591-7.591M141.307 64.998c.056 0 .113-.056.113-.113v-13.2c-.226-6.005-1.869-11.557-11.897-11.557-2.096 0-3.966.283-5.552.906l-.566.227v-1.02c0-.056-.057-.056-.113-.056h-5.61c-.056 0-.056.056-.056.056v24.644c0 .057.056.113.114.113h6.457c.057 0 .114-.056.114-.113v-13.88c0-.793.113-1.53.283-2.21.737-1.925 2.719-3.285 4.929-3.342 2.153 0 4.192 1.36 4.929 3.286.227.68.283 1.417.283 2.21v13.88c0 .056.057.113.113.113h6.459zM88.733 40.241v13.257c.227 6.005 1.87 11.557 11.897 11.557 10.198 0 11.671-6.798 11.897-11.84V40.24c0-.056-.057-.113-.113-.113h-6.459c-.056 0-.113.057-.113.113v13.88c0 .793-.113 1.53-.283 2.21-.737 1.926-2.72 3.285-4.929 3.342-2.152 0-4.192-1.36-4.929-3.286-.226-.68-.283-1.416-.283-2.21V40.242c0-.056-.056-.113-.113-.113h-6.459c-.113 0-.113.057-.113.113M48.057 22.396c-16.656 0-30.14 13.483-30.14 30.139s13.484 30.139 30.14 30.139 30.139-13.484 30.139-30.14-13.483-30.138-30.14-30.138M46.98 64.375l-2.209 6.515c-.057.227-.17.397-.283.567-.283.453-.623.793-1.077 1.02-.396.226-.85.34-1.303.34-.283 0-.623-.057-.906-.17-1.246-.454-2.04-1.7-1.87-2.947a19.24 19.24 0 0 1-10.48-17.165c0-10.651 8.61-19.319 19.318-19.319 1.246 0 2.436.113 3.626.34a2.876 2.876 0 0 1 3.286-1.19c.68.227 1.19.68 1.53 1.247.283.51.453 1.076.396 1.7 0 .226-.057.452-.113.622l-2.21 6.515zm2.437 7.421 2.662-8.044a11.87 11.87 0 0 0 7.875-11.217c0-2.436-.737-4.76-2.04-6.629l2.663-8.044c4.136 3.512 6.798 8.78 6.798 14.673-.056 10.197-7.931 18.525-17.958 19.261"/><path d="M36.16 52.535c0 4.192 2.21 7.874 5.495 10.027l7.478-21.868c-.34-.056-.736-.056-1.076-.056-6.572 0-11.897 5.325-11.897 11.897"/></g><defs><clipPath id="clip0_1_441"><path fill="#fff" d="M0 .23h340v104.61H0z"/></clipPath></defs></svg>