<svg width="340" height="106" viewBox="0 0 340 106" fill="none" xmlns="http://www.w3.org/2000/svg">
<g clip-path="url(#clip0_1_501)">
<g clip-path="url(#clip1_1_501)">
<path d="M232.433 47.8438C232.433 42.4795 229.158 38.5908 222.881 38.5908H202.597V66.3884H209.267V56.899H217.159L224.895 66.3884H232.41V65.7755L224.895 56.7396C229.584 55.7667 232.433 52.3013 232.433 47.8438ZM222.133 51.2817H209.267V44.3482H222.133C224.512 44.3482 226.042 45.6233 226.042 47.8246C226.042 50.0259 224.566 51.2817 222.133 51.2817Z" fill="black"/>
<path d="M333.182 38.5908H326.947V49.1299H310.137V38.5908H303.388V66.3884H310.137V55.4425H326.947V66.3884H333.182V38.5908Z" fill="black"/>
<path d="M184.743 38.5908L177.326 61.9803H176.919L169.459 38.5908H157.582V66.3884H163.934V43.554H164.331L171.748 66.3884H181.982L189.441 43.554H189.834V66.3884H196.386V38.5908H184.743Z" fill="black"/>
<path d="M112.16 49.9652C109.804 49.7179 105.409 49.3139 103.052 49.0693C100.695 48.8247 99.3921 48.1377 99.3921 46.596C99.3921 45.0543 100.815 43.8698 106.556 43.8698C111.622 43.8698 116.298 44.9609 120.378 46.9423V40.7204C116.296 38.7637 111.814 37.8047 106.212 37.8047C98.3547 37.8047 92.9139 41.1107 92.9139 46.7004C92.9139 51.4327 96.1066 54.016 102.511 54.7195C104.83 54.9751 108.771 55.3241 111.521 55.5522C114.517 55.8023 115.407 56.7229 115.407 58.097C115.407 59.9822 113.307 61.153 107.988 61.153C102.667 61.153 97.0897 59.3722 93.1898 56.8796V63.28C96.3224 65.3878 101.747 67.1768 107.788 67.1768C116.372 67.1768 121.881 63.8461 121.881 57.8826C121.881 53.3949 118.942 50.6715 112.16 49.9625V49.9652Z" fill="black"/>
<path d="M126.248 38.5908V66.3884H152.016V60.7079H132.6V55.0688H151.686V49.4322H132.6V44.2685H152.016V38.5908H126.248Z" fill="black"/>
<path d="M289.604 49.9652C287.246 49.7179 282.852 49.3139 280.495 49.0693C278.176 48.8302 276.835 48.1377 276.835 46.596C276.835 45.0543 278.258 43.8698 283.999 43.8698C289.065 43.8698 293.742 44.9609 297.822 46.9423V40.7204C293.739 38.7637 289.257 37.8047 283.655 37.8047C275.798 37.8047 270.357 41.1107 270.357 46.7004C270.357 51.4327 273.55 54.016 279.954 54.7195C282.273 54.9751 286.215 55.3241 288.964 55.5522C291.96 55.8023 292.851 56.7229 292.851 58.097C292.851 59.9822 290.751 61.153 285.43 61.153C280.11 61.153 274.533 59.3722 270.633 56.8796V63.28C273.766 65.3878 279.19 67.1768 285.231 67.1768C293.815 67.1768 299.324 63.8461 299.324 57.8826C299.324 53.3949 296.385 50.6715 289.604 49.9625V49.9652Z" fill="black"/>
<path d="M259.148 38.5908V52.8208C259.148 58.2126 255.893 61.1723 250.999 61.1723C246.105 61.1723 242.849 58.2566 242.849 52.7382V38.5908H236.218V52.1062C236.218 62.2002 242.486 67.1826 251.094 67.1826C259.703 67.1826 265.775 62.3953 265.775 52.4359V38.5908H259.143H259.148Z" fill="black"/>
<path d="M70.0622 52.3274C70.0622 53.6823 69.3876 53.8912 67.678 53.8912C65.8644 53.8912 65.5531 53.5779 65.3455 52.223C64.9823 48.7301 62.6498 45.7567 58.7143 45.4461C57.4716 45.3417 57.1603 44.8717 57.1603 43.3081C57.1603 41.8487 57.3678 41.1699 58.5067 41.1699C65.3455 41.1699 70.0622 46.6965 70.0622 52.3274ZM80.0118 52.3274C80.0118 41.846 72.9627 30.793 56.6932 30.793H24.3481C23.6954 30.793 23.2912 31.1364 23.2912 31.7355C23.2912 32.0626 23.5343 32.3566 23.7555 32.5298C24.9408 33.467 26.6669 34.4975 28.9829 35.6626C31.2279 36.7921 32.9622 37.5259 34.7238 38.2459C35.4503 38.5427 35.7398 38.867 35.7398 39.3013C35.7398 39.8673 35.3438 40.2274 34.5244 40.2274H8.85156C8.09229 40.2274 7.72632 40.7192 7.72632 41.2167C7.72632 41.6399 7.8738 41.978 8.23158 42.3517C10.3155 44.5392 13.6284 47.1774 18.4707 50.2251C22.7149 52.8963 27.9588 55.7791 32.1182 57.7853C32.8175 58.1233 33.0605 58.5135 33.0441 58.9175C33.0251 59.3847 32.659 59.7804 31.8506 59.7804H20.0848C19.4157 59.7804 19.0442 60.1349 19.0442 60.6791C19.0442 60.9814 19.2873 61.3661 19.6041 61.6574C22.2807 64.1006 26.5604 66.7717 32.263 69.2149C39.8693 72.4741 47.6121 74.4335 56.3082 74.4335C72.7852 74.4335 80.0118 62.0257 80.0118 52.3274ZM58.5067 67.1867C50.4225 67.1867 43.6875 60.5636 43.6875 52.3274C43.6875 44.0912 50.4225 37.6771 58.5067 37.6771C66.5909 37.6771 73.2741 44.1957 73.2741 52.3274C73.2741 60.4592 66.7957 67.1867 58.5067 67.1867Z" fill="#EE7326"/>
</g>
</g>
<defs>
<clipPath id="clip0_1_501">
<rect width="340" height="105.58" fill="white" transform="translate(0 0.139648)"/>
</clipPath>
<clipPath id="clip1_1_501">
<rect width="340" height="105.58" fill="white" transform="translate(0 0.139648)"/>
</clipPath>
</defs>
</svg>
